<svg xmlns="http://www.w3.org/2000/svg" xmlns:xlink="http://www.w3.org/1999/xlink" width="475" zoomAndPan="magnify" viewBox="0 0 356.25 187.499995" height="250" preserveAspectRatio="xMidYMid meet" version="1.0"><defs><g/><clipPath id="26d7227f1f"><path d="M 302.664062 33.78125 L 337.070312 33.78125 L 337.070312 75.671875 L 302.664062 75.671875 Z M 302.664062 33.78125 " clip-rule="nonzero"/></clipPath></defs><g clip-path="url(#26d7227f1f)"><path fill="#000000" d="M 316.9375 58.34375 L 326.46875 48.863281 C 326.675781 48.667969 326.921875 48.570312 327.207031 48.566406 C 327.496094 48.566406 327.742188 48.664062 327.953125 48.859375 C 328.050781 48.957031 328.125 49.070312 328.179688 49.199219 C 328.234375 49.328125 328.261719 49.460938 328.261719 49.597656 C 328.261719 49.734375 328.234375 49.867188 328.183594 49.996094 C 328.128906 50.125 328.054688 50.238281 327.957031 50.335938 L 317.558594 60.679688 C 317.355469 60.882812 317.109375 60.984375 316.816406 60.984375 C 316.527344 60.988281 316.28125 60.886719 316.074219 60.683594 C 316.03125 60.640625 315.996094 60.59375 315.960938 60.546875 L 311.679688 55.488281 C 311.59375 55.378906 311.539062 55.253906 311.503906 55.117188 C 311.472656 54.984375 311.464844 54.847656 311.488281 54.710938 C 311.511719 54.570312 311.558594 54.445312 311.628906 54.324219 C 311.703125 54.207031 311.796875 54.105469 311.910156 54.027344 C 312.023438 53.945312 312.148438 53.886719 312.285156 53.855469 C 312.421875 53.824219 312.558594 53.820312 312.699219 53.84375 C 312.835938 53.867188 312.964844 53.914062 313.082031 53.988281 C 313.199219 54.0625 313.300781 54.15625 313.382812 54.269531 Z M 337.019531 57.5625 C 337.046875 60.671875 335.230469 64.335938 331.90625 67.882812 C 330.472656 69.410156 328.902344 70.78125 327.199219 71.996094 L 327.125 72.046875 C 327.09375 72.0625 327.066406 72.082031 327.039062 72.105469 L 326.972656 72.160156 C 324.9375 73.617188 322.742188 74.757812 320.378906 75.585938 L 320.078125 75.683594 L 319.777344 75.589844 C 319.058594 75.363281 318.351562 75.097656 317.660156 74.792969 C 317.621094 74.773438 317.574219 74.753906 317.53125 74.738281 L 317.472656 74.710938 C 313.941406 73.078125 310.824219 70.871094 308.125 68.082031 C 306.707031 66.648438 305.496094 65.058594 304.492188 63.316406 L 304.457031 63.242188 C 304.441406 63.210938 304.421875 63.179688 304.402344 63.152344 L 304.359375 63.082031 C 303.417969 61.460938 302.910156 59.714844 302.835938 57.847656 L 302.714844 42.902344 L 302.785156 42.863281 L 319.726562 33.78125 L 319.792969 33.816406 L 336.894531 42.625 Z M 334.964844 43.804688 L 319.75 35.972656 L 304.667969 44.050781 L 304.785156 57.832031 C 304.855469 59.367188 305.28125 60.804688 306.058594 62.136719 C 306.113281 62.222656 306.167969 62.316406 306.210938 62.410156 C 307.132812 63.992188 308.238281 65.4375 309.527344 66.742188 C 312.042969 69.339844 314.949219 71.40625 318.238281 72.933594 C 318.324219 72.964844 318.410156 73.003906 318.492188 73.042969 C 319.011719 73.265625 319.554688 73.476562 320.0625 73.644531 C 322.117188 72.886719 324.03125 71.871094 325.8125 70.601562 C 325.902344 70.527344 326 70.460938 326.097656 70.398438 C 327.683594 69.261719 329.144531 67.984375 330.480469 66.566406 C 333.464844 63.378906 335.09375 60.1875 335.074219 57.578125 Z M 334.964844 43.804688 " fill-opacity="1" fill-rule="nonzero"/></g><g fill="#000000" fill-opacity="1"><g transform="translate(26.404236, 58.389561)"><g><path d="M 16.703125 -13.125 C 17.285156 -13.125 17.765625 -13.144531 18.140625 -13.1875 L 18.140625 -12.8125 C 17.828125 -12.6875 17.523438 -12.445312 17.234375 -12.09375 C 16.941406 -11.738281 16.695312 -11.238281 16.5 -10.59375 L 13.21875 0.03125 C 13.082031 0.0195312 12.867188 0.015625 12.578125 0.015625 C 12.273438 0.015625 12.054688 0.0195312 11.921875 0.03125 L 9.1875 -8.265625 L 6.421875 0.03125 C 6.285156 0.0195312 6.070312 0.015625 5.78125 0.015625 C 5.476562 0.015625 5.257812 0.0195312 5.125 0.03125 L 0.953125 -11.625 C 0.796875 -12.03125 0.613281 -12.328125 0.40625 -12.515625 C 0.195312 -12.703125 -0.0078125 -12.800781 -0.21875 -12.8125 L -0.21875 -13.1875 C 0.519531 -13.144531 1.441406 -13.125 2.546875 -13.125 C 3.585938 -13.125 4.351562 -13.144531 4.84375 -13.1875 L 4.84375 -12.8125 C 4.40625 -12.75 4.1875 -12.507812 4.1875 -12.09375 C 4.1875 -11.894531 4.242188 -11.613281 4.359375 -11.25 L 7.078125 -3.375 L 8.953125 -8.921875 L 8.015625 -11.8125 C 7.890625 -12.164062 7.738281 -12.414062 7.5625 -12.5625 C 7.394531 -12.707031 7.203125 -12.789062 6.984375 -12.8125 L 6.984375 -13.1875 C 7.679688 -13.144531 8.566406 -13.125 9.640625 -13.125 C 10.859375 -13.125 11.753906 -13.144531 12.328125 -13.1875 L 12.328125 -12.8125 C 11.878906 -12.800781 11.554688 -12.75 11.359375 -12.65625 C 11.160156 -12.5625 11.0625 -12.382812 11.0625 -12.125 C 11.0625 -11.90625 11.125 -11.613281 11.25 -11.25 L 13.796875 -3.46875 L 15.578125 -9.09375 C 15.859375 -10.019531 16 -10.738281 16 -11.25 C 16 -11.78125 15.863281 -12.164062 15.59375 -12.40625 C 15.332031 -12.65625 14.929688 -12.789062 14.390625 -12.8125 L 14.390625 -13.1875 C 15.234375 -13.144531 16.003906 -13.125 16.703125 -13.125 Z M 16.703125 -13.125 "/></g></g></g><g fill="#000000" fill-opacity="1"><g transform="translate(44.426796, 58.389561)"><g><path d="M 10.65625 -1.5625 C 11.007812 -0.789062 11.398438 -0.394531 11.828125 -0.375 L 11.828125 0 C 11.234375 -0.0390625 10.421875 -0.0625 9.390625 -0.0625 C 8.054688 -0.0625 7.070312 -0.0390625 6.4375 0 L 6.4375 -0.375 C 6.851562 -0.394531 7.160156 -0.457031 7.359375 -0.5625 C 7.554688 -0.664062 7.65625 -0.84375 7.65625 -1.09375 C 7.65625 -1.320312 7.570312 -1.601562 7.40625 -1.9375 L 6.484375 -4.0625 L 2.5625 -4.0625 L 2.34375 -3.5625 C 2 -2.738281 1.828125 -2.097656 1.828125 -1.640625 C 1.828125 -1.210938 1.960938 -0.898438 2.234375 -0.703125 C 2.503906 -0.503906 2.910156 -0.394531 3.453125 -0.375 L 3.453125 0 C 2.742188 -0.0390625 2.023438 -0.0625 1.296875 -0.0625 C 0.628906 -0.0625 0.128906 -0.0390625 -0.203125 0 L -0.203125 -0.375 C 0.0859375 -0.4375 0.359375 -0.625 0.609375 -0.9375 C 0.867188 -1.257812 1.144531 -1.734375 1.4375 -2.359375 L 5.359375 -11.359375 C 5.460938 -11.347656 5.609375 -11.34375 5.796875 -11.34375 C 5.992188 -11.34375 6.132812 -11.347656 6.21875 -11.359375 Z M 6.3125 -4.4375 L 4.53125 -8.515625 L 2.734375 -4.4375 Z M 6.3125 -4.4375 "/></g></g></g><g fill="#000000" fill-opacity="1"><g transform="translate(56.100499, 58.389561)"><g><path d="M 12.6875 -0.78125 C 12.382812 -0.4375 12.046875 -0.175781 11.671875 0 C 11.304688 0.175781 10.84375 0.265625 10.28125 0.265625 C 9.570312 0.265625 9.023438 0.128906 8.640625 -0.140625 C 8.253906 -0.421875 8.003906 -0.789062 7.890625 -1.25 L 7.359375 -3.453125 C 7.222656 -4.140625 7.015625 -4.597656 6.734375 -4.828125 C 6.453125 -5.054688 6.039062 -5.171875 5.5 -5.171875 L 4.875 -5.171875 L 4.875 -1.96875 C 4.875 -1.5 4.90625 -1.160156 4.96875 -0.953125 C 5.039062 -0.742188 5.171875 -0.597656 5.359375 -0.515625 C 5.554688 -0.441406 5.863281 -0.394531 6.28125 -0.375 L 6.28125 0 C 5.570312 -0.0390625 4.554688 -0.0625 3.234375 -0.0625 C 2.085938 -0.0625 1.222656 -0.0390625 0.640625 0 L 0.640625 -0.375 C 1.054688 -0.394531 1.359375 -0.441406 1.546875 -0.515625 C 1.734375 -0.597656 1.859375 -0.742188 1.921875 -0.953125 C 1.992188 -1.160156 2.03125 -1.5 2.03125 -1.96875 L 2.03125 -9.34375 C 2.03125 -9.820312 1.992188 -10.164062 1.921875 -10.375 C 1.859375 -10.582031 1.734375 -10.722656 1.546875 -10.796875 C 1.359375 -10.878906 1.054688 -10.929688 0.640625 -10.953125 L 0.640625 -11.328125 C 1.222656 -11.285156 2.050781 -11.265625 3.125 -11.265625 L 5.25 -11.28125 C 5.5 -11.300781 5.78125 -11.3125 6.09375 -11.3125 C 7.757812 -11.3125 9.003906 -11.054688 9.828125 -10.546875 C 10.648438 -10.046875 11.0625 -9.347656 11.0625 -8.453125 C 11.0625 -7.679688 10.734375 -7.003906 10.078125 -6.421875 C 9.421875 -5.835938 8.320312 -5.46875 6.78125 -5.3125 C 6.957031 -5.3125 7.132812 -5.289062 7.3125 -5.25 C 8.207031 -5.15625 8.910156 -4.957031 9.421875 -4.65625 C 9.941406 -4.351562 10.285156 -3.878906 10.453125 -3.234375 L 10.84375 -1.578125 C 10.925781 -1.234375 11.03125 -0.984375 11.15625 -0.828125 C 11.28125 -0.679688 11.4375 -0.609375 11.625 -0.609375 C 11.882812 -0.609375 12.148438 -0.75 12.421875 -1.03125 Z M 5.84375 -10.953125 C 5.570312 -10.953125 5.367188 -10.90625 5.234375 -10.8125 C 5.097656 -10.726562 5.003906 -10.570312 4.953125 -10.34375 C 4.898438 -10.125 4.875 -9.789062 4.875 -9.34375 L 4.875 -5.546875 L 5.6875 -5.546875 C 6.601562 -5.546875 7.226562 -5.78125 7.5625 -6.25 C 7.90625 -6.726562 8.078125 -7.394531 8.078125 -8.25 C 8.078125 -9.15625 7.90625 -9.832031 7.5625 -10.28125 C 7.226562 -10.726562 6.65625 -10.953125 5.84375 -10.953125 Z M 5.84375 -10.953125 "/></g></g></g><g fill="#000000" fill-opacity="1"><g transform="translate(68.500316, 58.389561)"><g><path d="M 12.6875 -0.78125 C 12.382812 -0.4375 12.046875 -0.175781 11.671875 0 C 11.304688 0.175781 10.84375 0.265625 10.28125 0.265625 C 9.570312 0.265625 9.023438 0.128906 8.640625 -0.140625 C 8.253906 -0.421875 8.003906 -0.789062 7.890625 -1.25 L 7.359375 -3.453125 C 7.222656 -4.140625 7.015625 -4.597656 6.734375 -4.828125 C 6.453125 -5.054688 6.039062 -5.171875 5.5 -5.171875 L 4.875 -5.171875 L 4.875 -1.96875 C 4.875 -1.5 4.90625 -1.160156 4.96875 -0.953125 C 5.039062 -0.742188 5.171875 -0.597656 5.359375 -0.515625 C 5.554688 -0.441406 5.863281 -0.394531 6.28125 -0.375 L 6.28125 0 C 5.570312 -0.0390625 4.554688 -0.0625 3.234375 -0.0625 C 2.085938 -0.0625 1.222656 -0.0390625 0.640625 0 L 0.640625 -0.375 C 1.054688 -0.394531 1.359375 -0.441406 1.546875 -0.515625 C 1.734375 -0.597656 1.859375 -0.742188 1.921875 -0.953125 C 1.992188 -1.160156 2.03125 -1.5 2.03125 -1.96875 L 2.03125 -9.34375 C 2.03125 -9.820312 1.992188 -10.164062 1.921875 -10.375 C 1.859375 -10.582031 1.734375 -10.722656 1.546875 -10.796875 C 1.359375 -10.878906 1.054688 -10.929688 0.640625 -10.953125 L 0.640625 -11.328125 C 1.222656 -11.285156 2.050781 -11.265625 3.125 -11.265625 L 5.25 -11.28125 C 5.5 -11.300781 5.78125 -11.3125 6.09375 -11.3125 C 7.757812 -11.3125 9.003906 -11.054688 9.828125 -10.546875 C 10.648438 -10.046875 11.0625 -9.347656 11.0625 -8.453125 C 11.0625 -7.679688 10.734375 -7.003906 10.078125 -6.421875 C 9.421875 -5.835938 8.320312 -5.46875 6.78125 -5.3125 C 6.957031 -5.3125 7.132812 -5.289062 7.3125 -5.25 C 8.207031 -5.15625 8.910156 -4.957031 9.421875 -4.65625 C 9.941406 -4.351562 10.285156 -3.878906 10.453125 -3.234375 L 10.84375 -1.578125 C 10.925781 -1.234375 11.03125 -0.984375 11.15625 -0.828125 C 11.28125 -0.679688 11.4375 -0.609375 11.625 -0.609375 C 11.882812 -0.609375 12.148438 -0.75 12.421875 -1.03125 Z M 5.84375 -10.953125 C 5.570312 -10.953125 5.367188 -10.90625 5.234375 -10.8125 C 5.097656 -10.726562 5.003906 -10.570312 4.953125 -10.34375 C 4.898438 -10.125 4.875 -9.789062 4.875 -9.34375 L 4.875 -5.546875 L 5.6875 -5.546875 C 6.601562 -5.546875 7.226562 -5.78125 7.5625 -6.25 C 7.90625 -6.726562 8.078125 -7.394531 8.078125 -8.25 C 8.078125 -9.15625 7.90625 -9.832031 7.5625 -10.28125 C 7.226562 -10.726562 6.65625 -10.953125 5.84375 -10.953125 Z M 5.84375 -10.953125 "/></g></g></g><g fill="#000000" fill-opacity="1"><g transform="translate(80.900134, 58.389561)"><g><path d="M 10.65625 -1.5625 C 11.007812 -0.789062 11.398438 -0.394531 11.828125 -0.375 L 11.828125 0 C 11.234375 -0.0390625 10.421875 -0.0625 9.390625 -0.0625 C 8.054688 -0.0625 7.070312 -0.0390625 6.4375 0 L 6.4375 -0.375 C 6.851562 -0.394531 7.160156 -0.457031 7.359375 -0.5625 C 7.554688 -0.664062 7.65625 -0.84375 7.65625 -1.09375 C 7.65625 -1.320312 7.570312 -1.601562 7.40625 -1.9375 L 6.484375 -4.0625 L 2.5625 -4.0625 L 2.34375 -3.5625 C 2 -2.738281 1.828125 -2.097656 1.828125 -1.640625 C 1.828125 -1.210938 1.960938 -0.898438 2.234375 -0.703125 C 2.503906 -0.503906 2.910156 -0.394531 3.453125 -0.375 L 3.453125 0 C 2.742188 -0.0390625 2.023438 -0.0625 1.296875 -0.0625 C 0.628906 -0.0625 0.128906 -0.0390625 -0.203125 0 L -0.203125 -0.375 C 0.0859375 -0.4375 0.359375 -0.625 0.609375 -0.9375 C 0.867188 -1.257812 1.144531 -1.734375 1.4375 -2.359375 L 5.359375 -11.359375 C 5.460938 -11.347656 5.609375 -11.34375 5.796875 -11.34375 C 5.992188 -11.34375 6.132812 -11.347656 6.21875 -11.359375 Z M 6.3125 -4.4375 L 4.53125 -8.515625 L 2.734375 -4.4375 Z M 6.3125 -4.4375 "/></g></g></g><g fill="#000000" fill-opacity="1"><g transform="translate(92.573837, 58.389561)"><g><path d="M 12.3125 -10.953125 C 11.90625 -10.890625 11.601562 -10.796875 11.40625 -10.671875 C 11.21875 -10.546875 11.085938 -10.347656 11.015625 -10.078125 C 10.953125 -9.804688 10.921875 -9.390625 10.921875 -8.828125 L 10.921875 0.03125 L 10.40625 0.015625 L 9.921875 0.03125 L 2.484375 -9.21875 L 2.484375 -2.5 C 2.484375 -1.945312 2.53125 -1.53125 2.625 -1.25 C 2.726562 -0.976562 2.910156 -0.78125 3.171875 -0.65625 C 3.429688 -0.53125 3.835938 -0.4375 4.390625 -0.375 L 4.390625 0 C 3.835938 -0.0390625 3.128906 -0.0625 2.265625 -0.0625 C 1.585938 -0.0625 1.050781 -0.0390625 0.65625 0 L 0.65625 -0.375 C 1.0625 -0.4375 1.359375 -0.53125 1.546875 -0.65625 C 1.742188 -0.78125 1.875 -0.976562 1.9375 -1.25 C 2.007812 -1.519531 2.046875 -1.9375 2.046875 -2.5 L 2.046875 -9.34375 C 2.046875 -9.820312 2.007812 -10.164062 1.9375 -10.375 C 1.875 -10.582031 1.742188 -10.722656 1.546875 -10.796875 C 1.359375 -10.878906 1.0625 -10.929688 0.65625 -10.953125 L 0.65625 -11.328125 C 1.050781 -11.285156 1.585938 -11.265625 2.265625 -11.265625 C 3.148438 -11.265625 3.910156 -11.285156 4.546875 -11.328125 L 10.484375 -3.953125 L 10.484375 -8.828125 C 10.484375 -9.367188 10.429688 -9.78125 10.328125 -10.0625 C 10.234375 -10.34375 10.050781 -10.546875 9.78125 -10.671875 C 9.519531 -10.796875 9.113281 -10.890625 8.5625 -10.953125 L 8.5625 -11.328125 C 9.113281 -11.285156 9.820312 -11.265625 10.6875 -11.265625 C 11.382812 -11.265625 11.925781 -11.285156 12.3125 -11.328125 Z M 12.3125 -10.953125 "/></g></g></g><g fill="#000000" fill-opacity="1"><g transform="translate(105.420499, 58.389561)"><g><path d="M 11.5625 -11.328125 C 11.476562 -10.378906 11.4375 -9.535156 11.4375 -8.796875 C 11.4375 -8.097656 11.453125 -7.550781 11.484375 -7.15625 L 11.0625 -7.15625 C 10.882812 -8.09375 10.675781 -8.828125 10.4375 -9.359375 C 10.195312 -9.898438 9.882812 -10.289062 9.5 -10.53125 C 9.125 -10.769531 8.640625 -10.890625 8.046875 -10.890625 L 7.46875 -10.890625 L 7.46875 -2.15625 C 7.46875 -1.632812 7.515625 -1.253906 7.609375 -1.015625 C 7.710938 -0.785156 7.890625 -0.625 8.140625 -0.53125 C 8.390625 -0.445312 8.789062 -0.394531 9.34375 -0.375 L 9.34375 0 C 8.675781 -0.0390625 7.5625 -0.0625 6 -0.0625 C 4.414062 -0.0625 3.328125 -0.0390625 2.734375 0 L 2.734375 -0.375 C 3.296875 -0.394531 3.703125 -0.445312 3.953125 -0.53125 C 4.203125 -0.625 4.375 -0.785156 4.46875 -1.015625 C 4.570312 -1.253906 4.625 -1.632812 4.625 -2.15625 L 4.625 -10.890625 L 4.046875 -10.890625 C 3.441406 -10.890625 2.953125 -10.769531 2.578125 -10.53125 C 2.203125 -10.289062 1.890625 -9.898438 1.640625 -9.359375 C 1.398438 -8.828125 1.195312 -8.09375 1.03125 -7.15625 L 0.59375 -7.15625 C 0.632812 -7.550781 0.65625 -8.097656 0.65625 -8.796875 C 0.65625 -9.535156 0.609375 -10.378906 0.515625 -11.328125 C 1.597656 -11.285156 3.425781 -11.265625 6 -11.265625 C 8.613281 -11.265625 10.46875 -11.285156 11.5625 -11.328125 Z M 11.5625 -11.328125 "/></g></g></g><g fill="#000000" fill-opacity="1"><g transform="translate(117.503804, 58.389561)"><g><path d="M 9.59375 -11.265625 C 10.207031 -11.265625 10.6875 -11.285156 11.03125 -11.328125 L 11.03125 -10.953125 C 10.78125 -10.835938 10.523438 -10.628906 10.265625 -10.328125 C 10.015625 -10.023438 9.71875 -9.566406 9.375 -8.953125 L 7.25 -5.046875 L 7.25 -2.09375 C 7.25 -1.59375 7.289062 -1.226562 7.375 -1 C 7.457031 -0.769531 7.617188 -0.613281 7.859375 -0.53125 C 8.097656 -0.445312 8.472656 -0.394531 8.984375 -0.375 L 8.984375 0 C 8.335938 -0.0390625 7.269531 -0.0625 5.78125 -0.0625 C 4.257812 -0.0625 3.21875 -0.0390625 2.65625 0 L 2.65625 -0.375 C 3.164062 -0.394531 3.539062 -0.445312 3.78125 -0.53125 C 4.019531 -0.613281 4.179688 -0.769531 4.265625 -1 C 4.347656 -1.226562 4.390625 -1.59375 4.390625 -2.09375 L 4.390625 -4.09375 L 1.0625 -9.890625 C 0.851562 -10.253906 0.664062 -10.507812 0.5 -10.65625 C 0.34375 -10.800781 0.171875 -10.894531 -0.015625 -10.9375 L -0.015625 -11.328125 C 0.753906 -11.265625 1.484375 -11.234375 2.171875 -11.234375 C 3.160156 -11.234375 4.253906 -11.265625 5.453125 -11.328125 L 5.453125 -10.9375 C 5.078125 -10.9375 4.785156 -10.898438 4.578125 -10.828125 C 4.367188 -10.765625 4.265625 -10.632812 4.265625 -10.4375 C 4.265625 -10.269531 4.332031 -10.078125 4.46875 -9.859375 L 7 -5.4375 L 8.1875 -7.625 C 8.664062 -8.488281 8.90625 -9.203125 8.90625 -9.765625 C 8.90625 -10.515625 8.4375 -10.910156 7.5 -10.953125 L 7.5 -11.328125 C 8.257812 -11.285156 8.957031 -11.265625 9.59375 -11.265625 Z M 9.59375 -11.265625 "/></g></g></g><g fill="#000000" fill-opacity="1"><g transform="translate(26.819466, 89.760632)"><g><path d="M 4.609375 -10.171875 L 8.09375 -1.203125 C 8.226562 -0.835938 8.382812 -0.59375 8.5625 -0.46875 C 8.75 -0.351562 8.921875 -0.289062 9.078125 -0.28125 L 9.078125 0 C 8.878906 -0.0195312 8.640625 -0.03125 8.359375 -0.03125 C 8.085938 -0.0390625 7.816406 -0.046875 7.546875 -0.046875 C 7.171875 -0.046875 6.820312 -0.0390625 6.5 -0.03125 C 6.175781 -0.03125 5.914062 -0.0195312 5.71875 0 L 5.71875 -0.28125 C 6.207031 -0.300781 6.515625 -0.382812 6.640625 -0.53125 C 6.773438 -0.675781 6.75 -0.992188 6.5625 -1.484375 L 3.90625 -8.578125 L 4.140625 -8.765625 L 1.65625 -2.3125 C 1.5 -1.925781 1.40625 -1.601562 1.375 -1.34375 C 1.351562 -1.082031 1.378906 -0.875 1.453125 -0.71875 C 1.535156 -0.570312 1.675781 -0.460938 1.875 -0.390625 C 2.070312 -0.328125 2.316406 -0.289062 2.609375 -0.28125 L 2.609375 0 C 2.347656 -0.0195312 2.070312 -0.03125 1.78125 -0.03125 C 1.488281 -0.0390625 1.21875 -0.046875 0.96875 -0.046875 C 0.726562 -0.046875 0.523438 -0.0390625 0.359375 -0.03125 C 0.191406 -0.03125 0.0390625 -0.0195312 -0.09375 0 L -0.09375 -0.28125 C 0.09375 -0.332031 0.285156 -0.445312 0.484375 -0.625 C 0.679688 -0.800781 0.863281 -1.101562 1.03125 -1.53125 L 4.375 -10.171875 C 4.414062 -10.171875 4.453125 -10.171875 4.484375 -10.171875 C 4.523438 -10.171875 4.566406 -10.171875 4.609375 -10.171875 Z M 6.34375 -4.109375 L 6.34375 -3.828125 L 2.09375 -3.828125 L 2.234375 -4.109375 Z M 6.34375 -4.109375 "/></g></g></g><g fill="#000000" fill-opacity="1"><g transform="translate(35.802549, 89.760632)"><g><path d="M 2.96875 -7.546875 C 3.34375 -7.546875 3.664062 -7.484375 3.9375 -7.359375 C 4.207031 -7.234375 4.398438 -7.117188 4.515625 -7.015625 C 4.835938 -6.765625 5.03125 -6.9375 5.09375 -7.53125 L 5.421875 -7.53125 C 5.398438 -7.257812 5.382812 -6.941406 5.375 -6.578125 C 5.363281 -6.210938 5.359375 -5.722656 5.359375 -5.109375 L 5.03125 -5.109375 C 4.976562 -5.460938 4.878906 -5.804688 4.734375 -6.140625 C 4.597656 -6.472656 4.394531 -6.742188 4.125 -6.953125 C 3.863281 -7.171875 3.519531 -7.28125 3.09375 -7.28125 C 2.757812 -7.28125 2.476562 -7.1875 2.25 -7 C 2.03125 -6.8125 1.921875 -6.535156 1.921875 -6.171875 C 1.921875 -5.890625 2.003906 -5.644531 2.171875 -5.4375 C 2.347656 -5.238281 2.570312 -5.050781 2.84375 -4.875 C 3.125 -4.695312 3.425781 -4.503906 3.75 -4.296875 C 4.113281 -4.066406 4.441406 -3.832031 4.734375 -3.59375 C 5.023438 -3.351562 5.257812 -3.085938 5.4375 -2.796875 C 5.613281 -2.515625 5.703125 -2.179688 5.703125 -1.796875 C 5.703125 -1.359375 5.585938 -0.988281 5.359375 -0.6875 C 5.128906 -0.394531 4.832031 -0.171875 4.46875 -0.015625 C 4.101562 0.128906 3.703125 0.203125 3.265625 0.203125 C 3.054688 0.203125 2.859375 0.179688 2.671875 0.140625 C 2.484375 0.109375 2.304688 0.0625 2.140625 0 C 2.046875 -0.0507812 1.945312 -0.109375 1.84375 -0.171875 C 1.75 -0.234375 1.65625 -0.304688 1.5625 -0.390625 C 1.457031 -0.460938 1.367188 -0.457031 1.296875 -0.375 C 1.222656 -0.289062 1.164062 -0.132812 1.125 0.09375 L 0.796875 0.09375 C 0.816406 -0.207031 0.832031 -0.578125 0.84375 -1.015625 C 0.851562 -1.453125 0.859375 -2.03125 0.859375 -2.75 L 1.1875 -2.75 C 1.25 -2.21875 1.34375 -1.75 1.46875 -1.34375 C 1.59375 -0.945312 1.785156 -0.632812 2.046875 -0.40625 C 2.316406 -0.1875 2.691406 -0.078125 3.171875 -0.078125 C 3.359375 -0.078125 3.546875 -0.117188 3.734375 -0.203125 C 3.929688 -0.296875 4.097656 -0.441406 4.234375 -0.640625 C 4.367188 -0.835938 4.4375 -1.101562 4.4375 -1.4375 C 4.4375 -1.851562 4.285156 -2.195312 3.984375 -2.46875 C 3.679688 -2.738281 3.296875 -3.019531 2.828125 -3.3125 C 2.484375 -3.53125 2.160156 -3.75 1.859375 -3.96875 C 1.554688 -4.1875 1.3125 -4.429688 1.125 -4.703125 C 0.945312 -4.984375 0.859375 -5.316406 0.859375 -5.703125 C 0.859375 -6.128906 0.953125 -6.476562 1.140625 -6.75 C 1.335938 -7.019531 1.597656 -7.21875 1.921875 -7.34375 C 2.242188 -7.476562 2.59375 -7.546875 2.96875 -7.546875 Z M 2.96875 -7.546875 "/></g></g></g><g fill="#000000" fill-opacity="1"><g transform="translate(42.176264, 89.760632)"><g><path d="M 2.96875 -7.546875 C 3.34375 -7.546875 3.664062 -7.484375 3.9375 -7.359375 C 4.207031 -7.234375 4.398438 -7.117188 4.515625 -7.015625 C 4.835938 -6.765625 5.03125 -6.9375 5.09375 -7.53125 L 5.421875 -7.53125 C 5.398438 -7.257812 5.382812 -6.941406 5.375 -6.578125 C 5.363281 -6.210938 5.359375 -5.722656 5.359375 -5.109375 L 5.03125 -5.109375 C 4.976562 -5.460938 4.878906 -5.804688 4.734375 -6.140625 C 4.597656 -6.472656 4.394531 -6.742188 4.125 -6.953125 C 3.863281 -7.171875 3.519531 -7.28125 3.09375 -7.28125 C 2.757812 -7.28125 2.476562 -7.1875 2.25 -7 C 2.03125 -6.8125 1.921875 -6.535156 1.921875 -6.171875 C 1.921875 -5.890625 2.003906 -5.644531 2.171875 -5.4375 C 2.347656 -5.238281 2.570312 -5.050781 2.84375 -4.875 C 3.125 -4.695312 3.425781 -4.503906 3.75 -4.296875 C 4.113281 -4.066406 4.441406 -3.832031 4.734375 -3.59375 C 5.023438 -3.351562 5.257812 -3.085938 5.4375 -2.796875 C 5.613281 -2.515625 5.703125 -2.179688 5.703125 -1.796875 C 5.703125 -1.359375 5.585938 -0.988281 5.359375 -0.6875 C 5.128906 -0.394531 4.832031 -0.171875 4.46875 -0.015625 C 4.101562 0.128906 3.703125 0.203125 3.265625 0.203125 C 3.054688 0.203125 2.859375 0.179688 2.671875 0.140625 C 2.484375 0.109375 2.304688 0.0625 2.140625 0 C 2.046875 -0.0507812 1.945312 -0.109375 1.84375 -0.171875 C 1.75 -0.234375 1.65625 -0.304688 1.5625 -0.390625 C 1.457031 -0.460938 1.367188 -0.457031 1.296875 -0.375 C 1.222656 -0.289062 1.164062 -0.132812 1.125 0.09375 L 0.796875 0.09375 C 0.816406 -0.207031 0.832031 -0.578125 0.84375 -1.015625 C 0.851562 -1.453125 0.859375 -2.03125 0.859375 -2.75 L 1.1875 -2.75 C 1.25 -2.21875 1.34375 -1.75 1.46875 -1.34375 C 1.59375 -0.945312 1.785156 -0.632812 2.046875 -0.40625 C 2.316406 -0.1875 2.691406 -0.078125 3.171875 -0.078125 C 3.359375 -0.078125 3.546875 -0.117188 3.734375 -0.203125 C 3.929688 -0.296875 4.097656 -0.441406 4.234375 -0.640625 C 4.367188 -0.835938 4.4375 -1.101562 4.4375 -1.4375 C 4.4375 -1.851562 4.285156 -2.195312 3.984375 -2.46875 C 3.679688 -2.738281 3.296875 -3.019531 2.828125 -3.3125 C 2.484375 -3.53125 2.160156 -3.75 1.859375 -3.96875 C 1.554688 -4.1875 1.3125 -4.429688 1.125 -4.703125 C 0.945312 -4.984375 0.859375 -5.316406 0.859375 -5.703125 C 0.859375 -6.128906 0.953125 -6.476562 1.140625 -6.75 C 1.335938 -7.019531 1.597656 -7.21875 1.921875 -7.34375 C 2.242188 -7.476562 2.59375 -7.546875 2.96875 -7.546875 Z M 2.96875 -7.546875 "/></g></g></g><g fill="#000000" fill-opacity="1"><g transform="translate(48.54998, 89.760632)"><g><path d="M 6.890625 -7.5 L 6.890625 -1.546875 C 6.890625 -1.117188 6.96875 -0.800781 7.125 -0.59375 C 7.28125 -0.382812 7.5625 -0.28125 7.96875 -0.28125 L 7.96875 0.015625 C 7.675781 -0.015625 7.382812 -0.03125 7.09375 -0.03125 C 6.8125 -0.03125 6.546875 -0.015625 6.296875 0.015625 C 6.046875 0.046875 5.816406 0.0976562 5.609375 0.171875 L 5.609375 -1.515625 C 5.367188 -0.890625 5.03125 -0.445312 4.59375 -0.1875 C 4.164062 0.0703125 3.722656 0.203125 3.265625 0.203125 C 2.929688 0.203125 2.640625 0.15625 2.390625 0.0625 C 2.148438 -0.03125 1.945312 -0.164062 1.78125 -0.34375 C 1.601562 -0.53125 1.476562 -0.773438 1.40625 -1.078125 C 1.34375 -1.390625 1.3125 -1.769531 1.3125 -2.21875 L 1.3125 -5.796875 C 1.3125 -6.222656 1.234375 -6.535156 1.078125 -6.734375 C 0.929688 -6.941406 0.648438 -7.046875 0.234375 -7.046875 L 0.234375 -7.34375 C 0.535156 -7.3125 0.828125 -7.296875 1.109375 -7.296875 C 1.390625 -7.296875 1.65625 -7.3125 1.90625 -7.34375 C 2.15625 -7.382812 2.382812 -7.4375 2.59375 -7.5 L 2.59375 -1.890625 C 2.59375 -1.597656 2.609375 -1.328125 2.640625 -1.078125 C 2.679688 -0.835938 2.78125 -0.640625 2.9375 -0.484375 C 3.09375 -0.328125 3.34375 -0.25 3.6875 -0.25 C 4.050781 -0.25 4.378906 -0.363281 4.671875 -0.59375 C 4.960938 -0.820312 5.191406 -1.128906 5.359375 -1.515625 C 5.523438 -1.910156 5.609375 -2.351562 5.609375 -2.84375 L 5.609375 -5.796875 C 5.609375 -6.222656 5.53125 -6.535156 5.375 -6.734375 C 5.226562 -6.941406 4.941406 -7.046875 4.515625 -7.046875 L 4.515625 -7.34375 C 4.828125 -7.3125 5.125 -7.296875 5.40625 -7.296875 C 5.6875 -7.296875 5.953125 -7.3125 6.203125 -7.34375 C 6.453125 -7.382812 6.679688 -7.4375 6.890625 -7.5 Z M 6.890625 -7.5 "/></g></g></g><g fill="#000000" fill-opacity="1"><g transform="translate(56.834376, 89.760632)"><g><path d="M 4.84375 -7.546875 C 5.101562 -7.546875 5.332031 -7.492188 5.53125 -7.390625 C 5.726562 -7.285156 5.878906 -7.148438 5.984375 -6.984375 C 6.097656 -6.816406 6.15625 -6.628906 6.15625 -6.421875 C 6.15625 -6.179688 6.078125 -5.96875 5.921875 -5.78125 C 5.773438 -5.601562 5.578125 -5.515625 5.328125 -5.515625 C 5.128906 -5.515625 4.953125 -5.578125 4.796875 -5.703125 C 4.648438 -5.835938 4.578125 -6.023438 4.578125 -6.265625 C 4.578125 -6.441406 4.625 -6.59375 4.71875 -6.71875 C 4.820312 -6.851562 4.9375 -6.957031 5.0625 -7.03125 C 5 -7.125 4.898438 -7.171875 4.765625 -7.171875 C 4.472656 -7.171875 4.203125 -7.082031 3.953125 -6.90625 C 3.703125 -6.726562 3.488281 -6.503906 3.3125 -6.234375 C 3.144531 -5.960938 3.015625 -5.671875 2.921875 -5.359375 C 2.828125 -5.046875 2.78125 -4.757812 2.78125 -4.5 L 2.78125 -1.46875 C 2.78125 -1 2.914062 -0.6875 3.1875 -0.53125 C 3.457031 -0.375 3.828125 -0.296875 4.296875 -0.296875 L 4.296875 0 C 4.078125 -0.0078125 3.765625 -0.0195312 3.359375 -0.03125 C 2.960938 -0.0507812 2.539062 -0.0625 2.09375 -0.0625 C 1.769531 -0.0625 1.445312 -0.0507812 1.125 -0.03125 C 0.8125 -0.0195312 0.570312 -0.0078125 0.40625 0 L 0.40625 -0.296875 C 0.800781 -0.296875 1.082031 -0.367188 1.25 -0.515625 C 1.414062 -0.660156 1.5 -0.929688 1.5 -1.328125 L 1.5 -5.796875 C 1.5 -6.222656 1.421875 -6.535156 1.265625 -6.734375 C 1.117188 -6.941406 0.832031 -7.046875 0.40625 -7.046875 L 0.40625 -7.34375 C 0.71875 -7.3125 1.015625 -7.296875 1.296875 -7.296875 C 1.578125 -7.296875 1.84375 -7.3125 2.09375 -7.34375 C 2.34375 -7.382812 2.570312 -7.4375 2.78125 -7.5 L 2.78125 -5.71875 C 2.882812 -6 3.035156 -6.273438 3.234375 -6.546875 C 3.429688 -6.828125 3.664062 -7.0625 3.9375 -7.25 C 4.207031 -7.445312 4.507812 -7.546875 4.84375 -7.546875 Z M 4.84375 -7.546875 "/></g></g></g><g fill="#000000" fill-opacity="1"><g transform="translate(63.179569, 89.760632)"><g><path d="M 2.4375 0.09375 C 2.050781 0.09375 1.710938 0.0195312 1.421875 -0.125 C 1.140625 -0.269531 0.925781 -0.472656 0.78125 -0.734375 C 0.632812 -1.003906 0.5625 -1.316406 0.5625 -1.671875 C 0.5625 -2.085938 0.65625 -2.425781 0.84375 -2.6875 C 1.039062 -2.957031 1.289062 -3.171875 1.59375 -3.328125 C 1.894531 -3.492188 2.210938 -3.628906 2.546875 -3.734375 C 2.890625 -3.847656 3.210938 -3.953125 3.515625 -4.046875 C 3.828125 -4.148438 4.078125 -4.269531 4.265625 -4.40625 C 4.460938 -4.539062 4.5625 -4.71875 4.5625 -4.9375 L 4.5625 -5.828125 C 4.5625 -6.222656 4.5 -6.523438 4.375 -6.734375 C 4.257812 -6.941406 4.101562 -7.082031 3.90625 -7.15625 C 3.707031 -7.226562 3.484375 -7.265625 3.234375 -7.265625 C 2.992188 -7.265625 2.738281 -7.226562 2.46875 -7.15625 C 2.195312 -7.09375 1.984375 -6.957031 1.828125 -6.75 C 2.003906 -6.707031 2.160156 -6.609375 2.296875 -6.453125 C 2.429688 -6.304688 2.5 -6.113281 2.5 -5.875 C 2.5 -5.632812 2.421875 -5.445312 2.265625 -5.3125 C 2.117188 -5.175781 1.925781 -5.109375 1.6875 -5.109375 C 1.40625 -5.109375 1.203125 -5.195312 1.078125 -5.375 C 0.953125 -5.550781 0.890625 -5.75 0.890625 -5.96875 C 0.890625 -6.207031 0.945312 -6.40625 1.0625 -6.5625 C 1.1875 -6.71875 1.347656 -6.859375 1.546875 -6.984375 C 1.765625 -7.140625 2.046875 -7.269531 2.390625 -7.375 C 2.734375 -7.488281 3.125 -7.546875 3.5625 -7.546875 C 3.957031 -7.546875 4.289062 -7.5 4.5625 -7.40625 C 4.84375 -7.320312 5.070312 -7.191406 5.25 -7.015625 C 5.5 -6.785156 5.660156 -6.503906 5.734375 -6.171875 C 5.804688 -5.847656 5.84375 -5.457031 5.84375 -5 L 5.84375 -1.046875 C 5.84375 -0.804688 5.878906 -0.632812 5.953125 -0.53125 C 6.023438 -0.425781 6.140625 -0.375 6.296875 -0.375 C 6.398438 -0.375 6.5 -0.394531 6.59375 -0.4375 C 6.6875 -0.488281 6.800781 -0.566406 6.9375 -0.671875 L 7.09375 -0.421875 C 6.894531 -0.273438 6.703125 -0.148438 6.515625 -0.046875 C 6.335938 0.046875 6.097656 0.09375 5.796875 0.09375 C 5.515625 0.09375 5.285156 0.046875 5.109375 -0.046875 C 4.929688 -0.140625 4.796875 -0.273438 4.703125 -0.453125 C 4.609375 -0.640625 4.5625 -0.878906 4.5625 -1.171875 C 4.3125 -0.742188 4.003906 -0.425781 3.640625 -0.21875 C 3.285156 -0.0078125 2.882812 0.09375 2.4375 0.09375 Z M 2.953125 -0.46875 C 3.265625 -0.46875 3.554688 -0.554688 3.828125 -0.734375 C 4.097656 -0.921875 4.34375 -1.195312 4.5625 -1.5625 L 4.5625 -4.34375 C 4.445312 -4.1875 4.28125 -4.050781 4.0625 -3.9375 C 3.84375 -3.832031 3.601562 -3.722656 3.34375 -3.609375 C 3.09375 -3.503906 2.847656 -3.378906 2.609375 -3.234375 C 2.378906 -3.085938 2.1875 -2.894531 2.03125 -2.65625 C 1.882812 -2.414062 1.8125 -2.101562 1.8125 -1.71875 C 1.8125 -1.34375 1.910156 -1.039062 2.109375 -0.8125 C 2.316406 -0.582031 2.597656 -0.46875 2.953125 -0.46875 Z M 2.953125 -0.46875 "/></g></g></g><g fill="#000000" fill-opacity="1"><g transform="translate(70.280483, 89.760632)"><g><path d="M 5.203125 -7.546875 C 5.566406 -7.546875 5.867188 -7.5 6.109375 -7.40625 C 6.347656 -7.3125 6.550781 -7.175781 6.71875 -7 C 6.894531 -6.8125 7.019531 -6.570312 7.09375 -6.28125 C 7.175781 -6 7.21875 -5.617188 7.21875 -5.140625 L 7.21875 -1.328125 C 7.21875 -0.929688 7.300781 -0.660156 7.46875 -0.515625 C 7.632812 -0.367188 7.910156 -0.296875 8.296875 -0.296875 L 8.296875 0 C 8.140625 -0.0078125 7.894531 -0.0195312 7.5625 -0.03125 C 7.226562 -0.0507812 6.90625 -0.0625 6.59375 -0.0625 C 6.28125 -0.0625 5.972656 -0.0507812 5.671875 -0.03125 C 5.367188 -0.0195312 5.144531 -0.0078125 5 0 L 5 -0.296875 C 5.332031 -0.296875 5.570312 -0.367188 5.71875 -0.515625 C 5.863281 -0.660156 5.9375 -0.929688 5.9375 -1.328125 L 5.9375 -5.453125 C 5.9375 -5.742188 5.910156 -6.015625 5.859375 -6.265625 C 5.816406 -6.515625 5.710938 -6.710938 5.546875 -6.859375 C 5.378906 -7.015625 5.125 -7.09375 4.78125 -7.09375 C 4.382812 -7.09375 4.035156 -6.976562 3.734375 -6.75 C 3.429688 -6.519531 3.195312 -6.207031 3.03125 -5.8125 C 2.863281 -5.414062 2.78125 -4.976562 2.78125 -4.5 L 2.78125 -1.328125 C 2.78125 -0.929688 2.847656 -0.660156 2.984375 -0.515625 C 3.128906 -0.367188 3.375 -0.296875 3.71875 -0.296875 L 3.71875 0 C 3.570312 -0.0078125 3.347656 -0.0195312 3.046875 -0.03125 C 2.742188 -0.0507812 2.4375 -0.0625 2.125 -0.0625 C 1.8125 -0.0625 1.488281 -0.0507812 1.15625 -0.03125 C 0.820312 -0.0195312 0.570312 -0.0078125 0.40625 0 L 0.40625 -0.296875 C 0.800781 -0.296875 1.082031 -0.367188 1.25 -0.515625 C 1.414062 -0.660156 1.5 -0.929688 1.5 -1.328125 L 1.5 -5.796875 C 1.5 -6.222656 1.421875 -6.535156 1.265625 -6.734375 C 1.117188 -6.941406 0.832031 -7.046875 0.40625 -7.046875 L 0.40625 -7.34375 C 0.71875 -7.3125 1.015625 -7.296875 1.296875 -7.296875 C 1.578125 -7.296875 1.84375 -7.3125 2.09375 -7.34375 C 2.34375 -7.382812 2.570312 -7.4375 2.78125 -7.5 L 2.78125 -5.828125 C 3.03125 -6.472656 3.375 -6.921875 3.8125 -7.171875 C 4.257812 -7.421875 4.722656 -7.546875 5.203125 -7.546875 Z M 5.203125 -7.546875 "/></g></g></g><g fill="#000000" fill-opacity="1"><g transform="translate(78.793026, 89.760632)"><g><path d="M 3.984375 -7.546875 C 4.285156 -7.546875 4.578125 -7.503906 4.859375 -7.421875 C 5.148438 -7.347656 5.410156 -7.238281 5.640625 -7.09375 C 5.859375 -6.945312 6.023438 -6.78125 6.140625 -6.59375 C 6.253906 -6.40625 6.3125 -6.203125 6.3125 -5.984375 C 6.3125 -5.734375 6.238281 -5.535156 6.09375 -5.390625 C 5.945312 -5.253906 5.765625 -5.1875 5.546875 -5.1875 C 5.335938 -5.1875 5.15625 -5.25 5 -5.375 C 4.84375 -5.5 4.765625 -5.675781 4.765625 -5.90625 C 4.765625 -6.125 4.820312 -6.300781 4.9375 -6.4375 C 5.0625 -6.570312 5.203125 -6.65625 5.359375 -6.6875 C 5.265625 -6.863281 5.097656 -7.007812 4.859375 -7.125 C 4.617188 -7.238281 4.359375 -7.296875 4.078125 -7.296875 C 3.835938 -7.296875 3.597656 -7.238281 3.359375 -7.125 C 3.128906 -7.007812 2.910156 -6.816406 2.703125 -6.546875 C 2.503906 -6.285156 2.34375 -5.929688 2.21875 -5.484375 C 2.101562 -5.035156 2.046875 -4.472656 2.046875 -3.796875 C 2.046875 -2.960938 2.140625 -2.296875 2.328125 -1.796875 C 2.515625 -1.304688 2.757812 -0.953125 3.0625 -0.734375 C 3.375 -0.515625 3.71875 -0.40625 4.09375 -0.40625 C 4.34375 -0.40625 4.59375 -0.453125 4.84375 -0.546875 C 5.101562 -0.648438 5.347656 -0.804688 5.578125 -1.015625 C 5.804688 -1.234375 6 -1.523438 6.15625 -1.890625 L 6.4375 -1.78125 C 6.34375 -1.476562 6.1875 -1.171875 5.96875 -0.859375 C 5.75 -0.554688 5.460938 -0.300781 5.109375 -0.09375 C 4.753906 0.101562 4.320312 0.203125 3.8125 0.203125 C 3.21875 0.203125 2.679688 0.0507812 2.203125 -0.25 C 1.734375 -0.5625 1.359375 -1 1.078125 -1.5625 C 0.796875 -2.125 0.65625 -2.796875 0.65625 -3.578125 C 0.65625 -4.359375 0.796875 -5.046875 1.078125 -5.640625 C 1.359375 -6.234375 1.75 -6.695312 2.25 -7.03125 C 2.757812 -7.375 3.335938 -7.546875 3.984375 -7.546875 Z M 3.984375 -7.546875 "/></g></g></g><g fill="#000000" fill-opacity="1"><g transform="translate(85.722838, 89.760632)"><g><path d="M 3.875 -7.546875 C 4.71875 -7.546875 5.375 -7.289062 5.84375 -6.78125 C 6.3125 -6.269531 6.546875 -5.476562 6.546875 -4.40625 L 1.515625 -4.40625 L 1.5 -4.671875 L 5.171875 -4.671875 C 5.191406 -5.140625 5.15625 -5.570312 5.0625 -5.96875 C 4.96875 -6.363281 4.816406 -6.679688 4.609375 -6.921875 C 4.410156 -7.160156 4.148438 -7.28125 3.828125 -7.28125 C 3.390625 -7.28125 3 -7.0625 2.65625 -6.625 C 2.320312 -6.1875 2.117188 -5.488281 2.046875 -4.53125 L 2.09375 -4.484375 C 2.070312 -4.335938 2.054688 -4.175781 2.046875 -4 C 2.046875 -3.832031 2.046875 -3.664062 2.046875 -3.5 C 2.046875 -2.851562 2.148438 -2.296875 2.359375 -1.828125 C 2.566406 -1.359375 2.835938 -1.003906 3.171875 -0.765625 C 3.515625 -0.523438 3.863281 -0.40625 4.21875 -0.40625 C 4.507812 -0.40625 4.78125 -0.445312 5.03125 -0.53125 C 5.289062 -0.625 5.53125 -0.773438 5.75 -0.984375 C 5.96875 -1.191406 6.15625 -1.472656 6.3125 -1.828125 L 6.609375 -1.71875 C 6.503906 -1.394531 6.332031 -1.085938 6.09375 -0.796875 C 5.851562 -0.503906 5.550781 -0.265625 5.1875 -0.078125 C 4.832031 0.109375 4.414062 0.203125 3.9375 0.203125 C 3.25 0.203125 2.660156 0.046875 2.171875 -0.265625 C 1.679688 -0.578125 1.304688 -1.007812 1.046875 -1.5625 C 0.785156 -2.125 0.65625 -2.769531 0.65625 -3.5 C 0.65625 -4.332031 0.785156 -5.050781 1.046875 -5.65625 C 1.316406 -6.257812 1.691406 -6.722656 2.171875 -7.046875 C 2.660156 -7.378906 3.226562 -7.546875 3.875 -7.546875 Z M 3.875 -7.546875 "/></g></g></g><g fill="#000000" fill-opacity="1"><g transform="translate(92.93782, 89.760632)"><g/></g></g><g fill="#000000" fill-opacity="1"><g transform="translate(102.898915, 89.760632)"><g><path d="M 3.9375 -11.15625 C 4.207031 -11.15625 4.441406 -11.117188 4.640625 -11.046875 C 4.847656 -10.972656 5.023438 -10.878906 5.171875 -10.765625 C 5.316406 -10.648438 5.425781 -10.515625 5.5 -10.359375 C 5.582031 -10.210938 5.625 -10.054688 5.625 -9.890625 C 5.625 -9.671875 5.550781 -9.488281 5.40625 -9.34375 C 5.257812 -9.195312 5.078125 -9.125 4.859375 -9.125 C 4.648438 -9.125 4.46875 -9.191406 4.3125 -9.328125 C 4.15625 -9.472656 4.078125 -9.664062 4.078125 -9.90625 C 4.078125 -10.101562 4.128906 -10.265625 4.234375 -10.390625 C 4.347656 -10.515625 4.492188 -10.59375 4.671875 -10.625 C 4.648438 -10.707031 4.578125 -10.78125 4.453125 -10.84375 C 4.335938 -10.90625 4.179688 -10.9375 3.984375 -10.9375 C 3.765625 -10.9375 3.578125 -10.890625 3.421875 -10.796875 C 3.265625 -10.703125 3.140625 -10.570312 3.046875 -10.40625 C 2.929688 -10.207031 2.859375 -9.910156 2.828125 -9.515625 C 2.804688 -9.128906 2.796875 -8.523438 2.796875 -7.703125 L 2.796875 -7.328125 L 4.328125 -7.328125 L 4.328125 -7.046875 L 2.796875 -7.046875 L 2.796875 -1.46875 C 2.796875 -1 2.929688 -0.6875 3.203125 -0.53125 C 3.472656 -0.375 3.84375 -0.296875 4.3125 -0.296875 L 4.3125 0 C 4.09375 -0.0078125 3.78125 -0.0195312 3.375 -0.03125 C 2.976562 -0.0507812 2.554688 -0.0625 2.109375 -0.0625 C 1.785156 -0.0625 1.460938 -0.0507812 1.140625 -0.03125 C 0.828125 -0.0195312 0.585938 -0.0078125 0.421875 0 L 0.421875 -0.296875 C 0.816406 -0.296875 1.097656 -0.367188 1.265625 -0.515625 C 1.429688 -0.660156 1.515625 -0.929688 1.515625 -1.328125 L 1.515625 -7.046875 L 0.375 -7.046875 L 0.375 -7.328125 L 1.515625 -7.328125 C 1.515625 -7.890625 1.535156 -8.359375 1.578125 -8.734375 C 1.628906 -9.117188 1.707031 -9.445312 1.8125 -9.71875 C 1.914062 -9.988281 2.054688 -10.226562 2.234375 -10.4375 C 2.429688 -10.65625 2.675781 -10.828125 2.96875 -10.953125 C 3.257812 -11.085938 3.582031 -11.15625 3.9375 -11.15625 Z M 3.9375 -11.15625 "/></g></g></g><g fill="#000000" fill-opacity="1"><g transform="translate(107.632854, 89.760632)"><g><path d="M 3.90625 -7.546875 C 4.519531 -7.546875 5.066406 -7.410156 5.546875 -7.140625 C 6.035156 -6.878906 6.421875 -6.460938 6.703125 -5.890625 C 6.992188 -5.316406 7.140625 -4.578125 7.140625 -3.671875 C 7.140625 -2.753906 6.992188 -2.007812 6.703125 -1.4375 C 6.421875 -0.875 6.035156 -0.457031 5.546875 -0.1875 C 5.066406 0.0703125 4.519531 0.203125 3.90625 0.203125 C 3.3125 0.203125 2.769531 0.0703125 2.28125 -0.1875 C 1.789062 -0.457031 1.398438 -0.875 1.109375 -1.4375 C 0.816406 -2.007812 0.671875 -2.753906 0.671875 -3.671875 C 0.671875 -4.578125 0.816406 -5.316406 1.109375 -5.890625 C 1.398438 -6.460938 1.789062 -6.878906 2.28125 -7.140625 C 2.769531 -7.410156 3.3125 -7.546875 3.90625 -7.546875 Z M 3.90625 -7.265625 C 3.363281 -7.265625 2.914062 -6.984375 2.5625 -6.421875 C 2.21875 -5.859375 2.046875 -4.941406 2.046875 -3.671875 C 2.046875 -2.390625 2.21875 -1.46875 2.5625 -0.90625 C 2.914062 -0.351562 3.363281 -0.078125 3.90625 -0.078125 C 4.445312 -0.078125 4.890625 -0.351562 5.234375 -0.90625 C 5.585938 -1.46875 5.765625 -2.390625 5.765625 -3.671875 C 5.765625 -4.941406 5.585938 -5.859375 5.234375 -6.421875 C 4.890625 -6.984375 4.445312 -7.265625 3.90625 -7.265625 Z M 3.90625 -7.265625 "/></g></g></g><g fill="#000000" fill-opacity="1"><g transform="translate(115.446711, 89.760632)"><g><path d="M 4.84375 -7.546875 C 5.101562 -7.546875 5.332031 -7.492188 5.53125 -7.390625 C 5.726562 -7.285156 5.878906 -7.148438 5.984375 -6.984375 C 6.097656 -6.816406 6.15625 -6.628906 6.15625 -6.421875 C 6.15625 -6.179688 6.078125 -5.96875 5.921875 -5.78125 C 5.773438 -5.601562 5.578125 -5.515625 5.328125 -5.515625 C 5.128906 -5.515625 4.953125 -5.578125 4.796875 -5.703125 C 4.648438 -5.835938 4.578125 -6.023438 4.578125 -6.265625 C 4.578125 -6.441406 4.625 -6.59375 4.71875 -6.71875 C 4.820312 -6.851562 4.9375 -6.957031 5.0625 -7.03125 C 5 -7.125 4.898438 -7.171875 4.765625 -7.171875 C 4.472656 -7.171875 4.203125 -7.082031 3.953125 -6.90625 C 3.703125 -6.726562 3.488281 -6.503906 3.3125 -6.234375 C 3.144531 -5.960938 3.015625 -5.671875 2.921875 -5.359375 C 2.828125 -5.046875 2.78125 -4.757812 2.78125 -4.5 L 2.78125 -1.46875 C 2.78125 -1 2.914062 -0.6875 3.1875 -0.53125 C 3.457031 -0.375 3.828125 -0.296875 4.296875 -0.296875 L 4.296875 0 C 4.078125 -0.0078125 3.765625 -0.0195312 3.359375 -0.03125 C 2.960938 -0.0507812 2.539062 -0.0625 2.09375 -0.0625 C 1.769531 -0.0625 1.445312 -0.0507812 1.125 -0.03125 C 0.8125 -0.0195312 0.570312 -0.0078125 0.40625 0 L 0.40625 -0.296875 C 0.800781 -0.296875 1.082031 -0.367188 1.25 -0.515625 C 1.414062 -0.660156 1.5 -0.929688 1.5 -1.328125 L 1.5 -5.796875 C 1.5 -6.222656 1.421875 -6.535156 1.265625 -6.734375 C 1.117188 -6.941406 0.832031 -7.046875 0.40625 -7.046875 L 0.40625 -7.34375 C 0.71875 -7.3125 1.015625 -7.296875 1.296875 -7.296875 C 1.578125 -7.296875 1.84375 -7.3125 2.09375 -7.34375 C 2.34375 -7.382812 2.570312 -7.4375 2.78125 -7.5 L 2.78125 -5.71875 C 2.882812 -6 3.035156 -6.273438 3.234375 -6.546875 C 3.429688 -6.828125 3.664062 -7.0625 3.9375 -7.25 C 4.207031 -7.445312 4.507812 -7.546875 4.84375 -7.546875 Z M 4.84375 -7.546875 "/></g></g></g><g fill="#000000" fill-opacity="1"><g transform="translate(121.791904, 89.760632)"><g/></g></g><g fill="#000000" fill-opacity="1"><g transform="translate(131.752999, 89.760632)"><g><path d="M 3.875 -7.546875 C 4.71875 -7.546875 5.375 -7.289062 5.84375 -6.78125 C 6.3125 -6.269531 6.546875 -5.476562 6.546875 -4.40625 L 1.515625 -4.40625 L 1.5 -4.671875 L 5.171875 -4.671875 C 5.191406 -5.140625 5.15625 -5.570312 5.0625 -5.96875 C 4.96875 -6.363281 4.816406 -6.679688 4.609375 -6.921875 C 4.410156 -7.160156 4.148438 -7.28125 3.828125 -7.28125 C 3.390625 -7.28125 3 -7.0625 2.65625 -6.625 C 2.320312 -6.1875 2.117188 -5.488281 2.046875 -4.53125 L 2.09375 -4.484375 C 2.070312 -4.335938 2.054688 -4.175781 2.046875 -4 C 2.046875 -3.832031 2.046875 -3.664062 2.046875 -3.5 C 2.046875 -2.851562 2.148438 -2.296875 2.359375 -1.828125 C 2.566406 -1.359375 2.835938 -1.003906 3.171875 -0.765625 C 3.515625 -0.523438 3.863281 -0.40625 4.21875 -0.40625 C 4.507812 -0.40625 4.78125 -0.445312 5.03125 -0.53125 C 5.289062 -0.625 5.53125 -0.773438 5.75 -0.984375 C 5.96875 -1.191406 6.15625 -1.472656 6.3125 -1.828125 L 6.609375 -1.71875 C 6.503906 -1.394531 6.332031 -1.085938 6.09375 -0.796875 C 5.851562 -0.503906 5.550781 -0.265625 5.1875 -0.078125 C 4.832031 0.109375 4.414062 0.203125 3.9375 0.203125 C 3.25 0.203125 2.660156 0.046875 2.171875 -0.265625 C 1.679688 -0.578125 1.304688 -1.007812 1.046875 -1.5625 C 0.785156 -2.125 0.65625 -2.769531 0.65625 -3.5 C 0.65625 -4.332031 0.785156 -5.050781 1.046875 -5.65625 C 1.316406 -6.257812 1.691406 -6.722656 2.171875 -7.046875 C 2.660156 -7.378906 3.226562 -7.546875 3.875 -7.546875 Z M 3.875 -7.546875 "/></g></g></g><g fill="#000000" fill-opacity="1"><g transform="translate(138.967981, 89.760632)"><g><path d="M 6.9375 -7.34375 L 6.9375 -7.0625 C 6.75 -7.039062 6.578125 -6.957031 6.421875 -6.8125 C 6.273438 -6.675781 6.132812 -6.425781 6 -6.0625 L 3.671875 0.078125 C 3.628906 0.078125 3.585938 0.078125 3.546875 0.078125 C 3.515625 0.078125 3.472656 0.078125 3.421875 0.078125 L 0.796875 -6.25 C 0.648438 -6.613281 0.5 -6.835938 0.34375 -6.921875 C 0.195312 -7.003906 0.0703125 -7.046875 -0.03125 -7.046875 L -0.03125 -7.34375 C 0.15625 -7.332031 0.351562 -7.320312 0.5625 -7.3125 C 0.769531 -7.300781 0.992188 -7.296875 1.234375 -7.296875 C 1.523438 -7.296875 1.832031 -7.296875 2.15625 -7.296875 C 2.488281 -7.304688 2.796875 -7.320312 3.078125 -7.34375 L 3.078125 -7.046875 C 2.835938 -7.046875 2.625 -7.03125 2.4375 -7 C 2.257812 -6.96875 2.144531 -6.875 2.09375 -6.71875 C 2.039062 -6.5625 2.082031 -6.300781 2.21875 -5.9375 L 4.015625 -1.53125 L 3.921875 -1.453125 L 5.546875 -5.71875 C 5.671875 -6.03125 5.71875 -6.28125 5.6875 -6.46875 C 5.664062 -6.65625 5.570312 -6.796875 5.40625 -6.890625 C 5.25 -6.984375 5 -7.039062 4.65625 -7.0625 L 4.65625 -7.34375 C 4.820312 -7.332031 4.96875 -7.320312 5.09375 -7.3125 C 5.21875 -7.3125 5.335938 -7.304688 5.453125 -7.296875 C 5.578125 -7.296875 5.707031 -7.296875 5.84375 -7.296875 C 6.0625 -7.296875 6.257812 -7.300781 6.4375 -7.3125 C 6.613281 -7.320312 6.78125 -7.332031 6.9375 -7.34375 Z M 6.9375 -7.34375 "/></g></g></g><g fill="#000000" fill-opacity="1"><g transform="translate(145.940572, 89.760632)"><g><path d="M 3.875 -7.546875 C 4.71875 -7.546875 5.375 -7.289062 5.84375 -6.78125 C 6.3125 -6.269531 6.546875 -5.476562 6.546875 -4.40625 L 1.515625 -4.40625 L 1.5 -4.671875 L 5.171875 -4.671875 C 5.191406 -5.140625 5.15625 -5.570312 5.0625 -5.96875 C 4.96875 -6.363281 4.816406 -6.679688 4.609375 -6.921875 C 4.410156 -7.160156 4.148438 -7.28125 3.828125 -7.28125 C 3.390625 -7.28125 3 -7.0625 2.65625 -6.625 C 2.320312 -6.1875 2.117188 -5.488281 2.046875 -4.53125 L 2.09375 -4.484375 C 2.070312 -4.335938 2.054688 -4.175781 2.046875 -4 C 2.046875 -3.832031 2.046875 -3.664062 2.046875 -3.5 C 2.046875 -2.851562 2.148438 -2.296875 2.359375 -1.828125 C 2.566406 -1.359375 2.835938 -1.003906 3.171875 -0.765625 C 3.515625 -0.523438 3.863281 -0.40625 4.21875 -0.40625 C 4.507812 -0.40625 4.78125 -0.445312 5.03125 -0.53125 C 5.289062 -0.625 5.53125 -0.773438 5.75 -0.984375 C 5.96875 -1.191406 6.15625 -1.472656 6.3125 -1.828125 L 6.609375 -1.71875 C 6.503906 -1.394531 6.332031 -1.085938 6.09375 -0.796875 C 5.851562 -0.503906 5.550781 -0.265625 5.1875 -0.078125 C 4.832031 0.109375 4.414062 0.203125 3.9375 0.203125 C 3.25 0.203125 2.660156 0.046875 2.171875 -0.265625 C 1.679688 -0.578125 1.304688 -1.007812 1.046875 -1.5625 C 0.785156 -2.125 0.65625 -2.769531 0.65625 -3.5 C 0.65625 -4.332031 0.785156 -5.050781 1.046875 -5.65625 C 1.316406 -6.257812 1.691406 -6.722656 2.171875 -7.046875 C 2.660156 -7.378906 3.226562 -7.546875 3.875 -7.546875 Z M 3.875 -7.546875 "/></g></g></g><g fill="#000000" fill-opacity="1"><g transform="translate(153.155554, 89.760632)"><g><path d="M 4.84375 -7.546875 C 5.101562 -7.546875 5.332031 -7.492188 5.53125 -7.390625 C 5.726562 -7.285156 5.878906 -7.148438 5.984375 -6.984375 C 6.097656 -6.816406 6.15625 -6.628906 6.15625 -6.421875 C 6.15625 -6.179688 6.078125 -5.96875 5.921875 -5.78125 C 5.773438 -5.601562 5.578125 -5.515625 5.328125 -5.515625 C 5.128906 -5.515625 4.953125 -5.578125 4.796875 -5.703125 C 4.648438 -5.835938 4.578125 -6.023438 4.578125 -6.265625 C 4.578125 -6.441406 4.625 -6.59375 4.71875 -6.71875 C 4.820312 -6.851562 4.9375 -6.957031 5.0625 -7.03125 C 5 -7.125 4.898438 -7.171875 4.765625 -7.171875 C 4.472656 -7.171875 4.203125 -7.082031 3.953125 -6.90625 C 3.703125 -6.726562 3.488281 -6.503906 3.3125 -6.234375 C 3.144531 -5.960938 3.015625 -5.671875 2.921875 -5.359375 C 2.828125 -5.046875 2.78125 -4.757812 2.78125 -4.5 L 2.78125 -1.46875 C 2.78125 -1 2.914062 -0.6875 3.1875 -0.53125 C 3.457031 -0.375 3.828125 -0.296875 4.296875 -0.296875 L 4.296875 0 C 4.078125 -0.0078125 3.765625 -0.0195312 3.359375 -0.03125 C 2.960938 -0.0507812 2.539062 -0.0625 2.09375 -0.0625 C 1.769531 -0.0625 1.445312 -0.0507812 1.125 -0.03125 C 0.8125 -0.0195312 0.570312 -0.0078125 0.40625 0 L 0.40625 -0.296875 C 0.800781 -0.296875 1.082031 -0.367188 1.25 -0.515625 C 1.414062 -0.660156 1.5 -0.929688 1.5 -1.328125 L 1.5 -5.796875 C 1.5 -6.222656 1.421875 -6.535156 1.265625 -6.734375 C 1.117188 -6.941406 0.832031 -7.046875 0.40625 -7.046875 L 0.40625 -7.34375 C 0.71875 -7.3125 1.015625 -7.296875 1.296875 -7.296875 C 1.578125 -7.296875 1.84375 -7.3125 2.09375 -7.34375 C 2.34375 -7.382812 2.570312 -7.4375 2.78125 -7.5 L 2.78125 -5.71875 C 2.882812 -6 3.035156 -6.273438 3.234375 -6.546875 C 3.429688 -6.828125 3.664062 -7.0625 3.9375 -7.25 C 4.207031 -7.445312 4.507812 -7.546875 4.84375 -7.546875 Z M 4.84375 -7.546875 "/></g></g></g><g fill="#000000" fill-opacity="1"><g transform="translate(159.500747, 89.760632)"><g><path d="M 7.046875 -7.34375 L 7.046875 -7.0625 C 6.867188 -7.039062 6.703125 -6.957031 6.546875 -6.8125 C 6.390625 -6.675781 6.25 -6.425781 6.125 -6.0625 L 3.78125 0.078125 L 3.53125 0.078125 L 0.90625 -6.25 C 0.726562 -6.613281 0.550781 -6.835938 0.375 -6.921875 C 0.195312 -7.003906 0.0507812 -7.046875 -0.0625 -7.046875 L -0.0625 -7.34375 C 0.144531 -7.3125 0.363281 -7.289062 0.59375 -7.28125 C 0.820312 -7.269531 1.070312 -7.265625 1.34375 -7.265625 C 1.632812 -7.265625 1.941406 -7.269531 2.265625 -7.28125 C 2.597656 -7.300781 2.910156 -7.320312 3.203125 -7.34375 L 3.203125 -7.046875 C 2.960938 -7.046875 2.75 -7.03125 2.5625 -7 C 2.375 -6.96875 2.253906 -6.867188 2.203125 -6.703125 C 2.160156 -6.535156 2.21875 -6.25 2.375 -5.84375 L 4.140625 -1.5 L 4.046875 -1.46875 L 5.671875 -5.71875 C 5.796875 -6.03125 5.847656 -6.28125 5.828125 -6.46875 C 5.804688 -6.65625 5.707031 -6.796875 5.53125 -6.890625 C 5.363281 -6.984375 5.109375 -7.039062 4.765625 -7.0625 L 4.765625 -7.34375 C 4.929688 -7.332031 5.078125 -7.320312 5.203125 -7.3125 C 5.328125 -7.3125 5.445312 -7.304688 5.5625 -7.296875 C 5.6875 -7.296875 5.820312 -7.296875 5.96875 -7.296875 C 6.1875 -7.296875 6.378906 -7.300781 6.546875 -7.3125 C 6.722656 -7.320312 6.890625 -7.332031 7.046875 -7.34375 Z M 3.78125 0.078125 L 3.296875 1.3125 C 3.203125 1.550781 3.101562 1.75 3 1.90625 C 2.90625 2.070312 2.800781 2.207031 2.6875 2.3125 C 2.53125 2.457031 2.347656 2.554688 2.140625 2.609375 C 1.929688 2.660156 1.738281 2.6875 1.5625 2.6875 C 1.382812 2.6875 1.222656 2.648438 1.078125 2.578125 C 0.929688 2.515625 0.8125 2.414062 0.71875 2.28125 C 0.632812 2.15625 0.59375 2.003906 0.59375 1.828125 C 0.59375 1.597656 0.660156 1.410156 0.796875 1.265625 C 0.929688 1.128906 1.117188 1.0625 1.359375 1.0625 C 1.554688 1.0625 1.722656 1.117188 1.859375 1.234375 C 2.003906 1.347656 2.078125 1.515625 2.078125 1.734375 C 2.078125 1.898438 2.039062 2.035156 1.96875 2.140625 C 1.894531 2.242188 1.804688 2.320312 1.703125 2.375 C 1.710938 2.382812 1.722656 2.390625 1.734375 2.390625 C 1.753906 2.390625 1.769531 2.390625 1.78125 2.390625 C 2.039062 2.390625 2.269531 2.300781 2.46875 2.125 C 2.664062 1.957031 2.84375 1.675781 3 1.28125 L 3.515625 -0.046875 Z M 3.78125 0.078125 "/></g></g></g><g fill="#000000" fill-opacity="1"><g transform="translate(166.687217, 89.760632)"><g/></g></g><g fill="#000000" fill-opacity="1"><g transform="translate(176.648313, 89.760632)"><g><path d="M 2.6875 -7.5 L 2.6875 1.25 C 2.6875 1.664062 2.804688 1.941406 3.046875 2.078125 C 3.285156 2.210938 3.617188 2.28125 4.046875 2.28125 L 4.046875 2.578125 C 3.835938 2.566406 3.546875 2.554688 3.171875 2.546875 C 2.804688 2.535156 2.414062 2.53125 2 2.53125 C 1.707031 2.53125 1.414062 2.535156 1.125 2.546875 C 0.832031 2.554688 0.609375 2.566406 0.453125 2.578125 L 0.453125 2.28125 C 0.796875 2.28125 1.035156 2.21875 1.171875 2.09375 C 1.316406 1.96875 1.390625 1.734375 1.390625 1.390625 L 1.390625 -5.796875 C 1.390625 -6.222656 1.3125 -6.535156 1.15625 -6.734375 C 1.007812 -6.941406 0.726562 -7.046875 0.3125 -7.046875 L 0.3125 -7.34375 C 0.613281 -7.3125 0.910156 -7.296875 1.203125 -7.296875 C 1.472656 -7.296875 1.734375 -7.3125 1.984375 -7.34375 C 2.242188 -7.382812 2.476562 -7.4375 2.6875 -7.5 Z M 4.96875 -7.546875 C 5.46875 -7.546875 5.914062 -7.410156 6.3125 -7.140625 C 6.71875 -6.867188 7.035156 -6.472656 7.265625 -5.953125 C 7.503906 -5.429688 7.625 -4.785156 7.625 -4.015625 C 7.625 -3.492188 7.5625 -2.984375 7.4375 -2.484375 C 7.3125 -1.984375 7.117188 -1.53125 6.859375 -1.125 C 6.597656 -0.726562 6.257812 -0.40625 5.84375 -0.15625 C 5.425781 0.0820312 4.925781 0.203125 4.34375 0.203125 C 3.90625 0.203125 3.519531 0.0976562 3.1875 -0.109375 C 2.863281 -0.316406 2.644531 -0.570312 2.53125 -0.875 L 2.671875 -1.0625 C 2.804688 -0.800781 3 -0.578125 3.25 -0.390625 C 3.5 -0.210938 3.8125 -0.125 4.1875 -0.125 C 4.726562 -0.125 5.144531 -0.289062 5.4375 -0.625 C 5.726562 -0.957031 5.929688 -1.398438 6.046875 -1.953125 C 6.171875 -2.515625 6.234375 -3.132812 6.234375 -3.8125 C 6.234375 -4.570312 6.171875 -5.191406 6.046875 -5.671875 C 5.921875 -6.160156 5.734375 -6.523438 5.484375 -6.765625 C 5.242188 -7.003906 4.941406 -7.125 4.578125 -7.125 C 4.109375 -7.125 3.679688 -6.929688 3.296875 -6.546875 C 2.921875 -6.160156 2.679688 -5.578125 2.578125 -4.796875 L 2.40625 -5 C 2.507812 -5.800781 2.796875 -6.425781 3.265625 -6.875 C 3.742188 -7.320312 4.3125 -7.546875 4.96875 -7.546875 Z M 4.96875 -7.546875 "/></g></g></g><g fill="#000000" fill-opacity="1"><g transform="translate(184.932709, 89.760632)"><g><path d="M 4.84375 -7.546875 C 5.101562 -7.546875 5.332031 -7.492188 5.53125 -7.390625 C 5.726562 -7.285156 5.878906 -7.148438 5.984375 -6.984375 C 6.097656 -6.816406 6.15625 -6.628906 6.15625 -6.421875 C 6.15625 -6.179688 6.078125 -5.96875 5.921875 -5.78125 C 5.773438 -5.601562 5.578125 -5.515625 5.328125 -5.515625 C 5.128906 -5.515625 4.953125 -5.578125 4.796875 -5.703125 C 4.648438 -5.835938 4.578125 -6.023438 4.578125 -6.265625 C 4.578125 -6.441406 4.625 -6.59375 4.71875 -6.71875 C 4.820312 -6.851562 4.9375 -6.957031 5.0625 -7.03125 C 5 -7.125 4.898438 -7.171875 4.765625 -7.171875 C 4.472656 -7.171875 4.203125 -7.082031 3.953125 -6.90625 C 3.703125 -6.726562 3.488281 -6.503906 3.3125 -6.234375 C 3.144531 -5.960938 3.015625 -5.671875 2.921875 -5.359375 C 2.828125 -5.046875 2.78125 -4.757812 2.78125 -4.5 L 2.78125 -1.46875 C 2.78125 -1 2.914062 -0.6875 3.1875 -0.53125 C 3.457031 -0.375 3.828125 -0.296875 4.296875 -0.296875 L 4.296875 0 C 4.078125 -0.0078125 3.765625 -0.0195312 3.359375 -0.03125 C 2.960938 -0.0507812 2.539062 -0.0625 2.09375 -0.0625 C 1.769531 -0.0625 1.445312 -0.0507812 1.125 -0.03125 C 0.8125 -0.0195312 0.570312 -0.0078125 0.40625 0 L 0.40625 -0.296875 C 0.800781 -0.296875 1.082031 -0.367188 1.25 -0.515625 C 1.414062 -0.660156 1.5 -0.929688 1.5 -1.328125 L 1.5 -5.796875 C 1.5 -6.222656 1.421875 -6.535156 1.265625 -6.734375 C 1.117188 -6.941406 0.832031 -7.046875 0.40625 -7.046875 L 0.40625 -7.34375 C 0.71875 -7.3125 1.015625 -7.296875 1.296875 -7.296875 C 1.578125 -7.296875 1.84375 -7.3125 2.09375 -7.34375 C 2.34375 -7.382812 2.570312 -7.4375 2.78125 -7.5 L 2.78125 -5.71875 C 2.882812 -6 3.035156 -6.273438 3.234375 -6.546875 C 3.429688 -6.828125 3.664062 -7.0625 3.9375 -7.25 C 4.207031 -7.445312 4.507812 -7.546875 4.84375 -7.546875 Z M 4.84375 -7.546875 "/></g></g></g><g fill="#000000" fill-opacity="1"><g transform="translate(191.277902, 89.760632)"><g><path d="M 3.90625 -7.546875 C 4.519531 -7.546875 5.066406 -7.410156 5.546875 -7.140625 C 6.035156 -6.878906 6.421875 -6.460938 6.703125 -5.890625 C 6.992188 -5.316406 7.140625 -4.578125 7.140625 -3.671875 C 7.140625 -2.753906 6.992188 -2.007812 6.703125 -1.4375 C 6.421875 -0.875 6.035156 -0.457031 5.546875 -0.1875 C 5.066406 0.0703125 4.519531 0.203125 3.90625 0.203125 C 3.3125 0.203125 2.769531 0.0703125 2.28125 -0.1875 C 1.789062 -0.457031 1.398438 -0.875 1.109375 -1.4375 C 0.816406 -2.007812 0.671875 -2.753906 0.671875 -3.671875 C 0.671875 -4.578125 0.816406 -5.316406 1.109375 -5.890625 C 1.398438 -6.460938 1.789062 -6.878906 2.28125 -7.140625 C 2.769531 -7.410156 3.3125 -7.546875 3.90625 -7.546875 Z M 3.90625 -7.265625 C 3.363281 -7.265625 2.914062 -6.984375 2.5625 -6.421875 C 2.21875 -5.859375 2.046875 -4.941406 2.046875 -3.671875 C 2.046875 -2.390625 2.21875 -1.46875 2.5625 -0.90625 C 2.914062 -0.351562 3.363281 -0.078125 3.90625 -0.078125 C 4.445312 -0.078125 4.890625 -0.351562 5.234375 -0.90625 C 5.585938 -1.46875 5.765625 -2.390625 5.765625 -3.671875 C 5.765625 -4.941406 5.585938 -5.859375 5.234375 -6.421875 C 4.890625 -6.984375 4.445312 -7.265625 3.90625 -7.265625 Z M 3.90625 -7.265625 "/></g></g></g><g fill="#000000" fill-opacity="1"><g transform="translate(199.091758, 89.760632)"><g><path d="M 6.90625 -11.1875 L 6.90625 -1.5625 C 6.90625 -1.125 6.984375 -0.800781 7.140625 -0.59375 C 7.296875 -0.394531 7.578125 -0.296875 7.984375 -0.296875 L 7.984375 0 C 7.691406 -0.03125 7.398438 -0.046875 7.109375 -0.046875 C 6.828125 -0.046875 6.5625 -0.03125 6.3125 0 C 6.0625 0.03125 5.832031 0.0820312 5.625 0.15625 L 5.625 -9.46875 C 5.625 -9.894531 5.546875 -10.210938 5.390625 -10.421875 C 5.242188 -10.628906 4.957031 -10.734375 4.53125 -10.734375 L 4.53125 -11.03125 C 4.84375 -11 5.140625 -10.984375 5.421875 -10.984375 C 5.691406 -10.984375 5.953125 -11 6.203125 -11.03125 C 6.460938 -11.0625 6.695312 -11.113281 6.90625 -11.1875 Z M 3.90625 -7.546875 C 4.320312 -7.546875 4.710938 -7.445312 5.078125 -7.25 C 5.453125 -7.050781 5.703125 -6.707031 5.828125 -6.21875 L 5.640625 -6.078125 C 5.503906 -6.472656 5.296875 -6.757812 5.015625 -6.9375 C 4.734375 -7.125 4.398438 -7.21875 4.015625 -7.21875 C 3.460938 -7.21875 2.992188 -6.925781 2.609375 -6.34375 C 2.234375 -5.769531 2.050781 -4.878906 2.0625 -3.671875 C 2.0625 -2.898438 2.132812 -2.257812 2.28125 -1.75 C 2.4375 -1.238281 2.65625 -0.859375 2.9375 -0.609375 C 3.226562 -0.359375 3.585938 -0.234375 4.015625 -0.234375 C 4.410156 -0.234375 4.769531 -0.398438 5.09375 -0.734375 C 5.414062 -1.078125 5.609375 -1.582031 5.671875 -2.25 L 5.84375 -2.046875 C 5.769531 -1.328125 5.539062 -0.769531 5.15625 -0.375 C 4.769531 0.0078125 4.25 0.203125 3.59375 0.203125 C 3 0.203125 2.484375 0.0625 2.046875 -0.21875 C 1.609375 -0.507812 1.269531 -0.941406 1.03125 -1.515625 C 0.800781 -2.085938 0.6875 -2.804688 0.6875 -3.671875 C 0.6875 -4.535156 0.832031 -5.253906 1.125 -5.828125 C 1.425781 -6.398438 1.820312 -6.828125 2.3125 -7.109375 C 2.800781 -7.398438 3.332031 -7.546875 3.90625 -7.546875 Z M 3.90625 -7.546875 "/></g></g></g><g fill="#000000" fill-opacity="1"><g transform="translate(207.376154, 89.760632)"><g><path d="M 6.890625 -7.5 L 6.890625 -1.546875 C 6.890625 -1.117188 6.96875 -0.800781 7.125 -0.59375 C 7.28125 -0.382812 7.5625 -0.28125 7.96875 -0.28125 L 7.96875 0.015625 C 7.675781 -0.015625 7.382812 -0.03125 7.09375 -0.03125 C 6.8125 -0.03125 6.546875 -0.015625 6.296875 0.015625 C 6.046875 0.046875 5.816406 0.0976562 5.609375 0.171875 L 5.609375 -1.515625 C 5.367188 -0.890625 5.03125 -0.445312 4.59375 -0.1875 C 4.164062 0.0703125 3.722656 0.203125 3.265625 0.203125 C 2.929688 0.203125 2.640625 0.15625 2.390625 0.0625 C 2.148438 -0.03125 1.945312 -0.164062 1.78125 -0.34375 C 1.601562 -0.53125 1.476562 -0.773438 1.40625 -1.078125 C 1.34375 -1.390625 1.3125 -1.769531 1.3125 -2.21875 L 1.3125 -5.796875 C 1.3125 -6.222656 1.234375 -6.535156 1.078125 -6.734375 C 0.929688 -6.941406 0.648438 -7.046875 0.234375 -7.046875 L 0.234375 -7.34375 C 0.535156 -7.3125 0.828125 -7.296875 1.109375 -7.296875 C 1.390625 -7.296875 1.65625 -7.3125 1.90625 -7.34375 C 2.15625 -7.382812 2.382812 -7.4375 2.59375 -7.5 L 2.59375 -1.890625 C 2.59375 -1.597656 2.609375 -1.328125 2.640625 -1.078125 C 2.679688 -0.835938 2.78125 -0.640625 2.9375 -0.484375 C 3.09375 -0.328125 3.34375 -0.25 3.6875 -0.25 C 4.050781 -0.25 4.378906 -0.363281 4.671875 -0.59375 C 4.960938 -0.820312 5.191406 -1.128906 5.359375 -1.515625 C 5.523438 -1.910156 5.609375 -2.351562 5.609375 -2.84375 L 5.609375 -5.796875 C 5.609375 -6.222656 5.53125 -6.535156 5.375 -6.734375 C 5.226562 -6.941406 4.941406 -7.046875 4.515625 -7.046875 L 4.515625 -7.34375 C 4.828125 -7.3125 5.125 -7.296875 5.40625 -7.296875 C 5.6875 -7.296875 5.953125 -7.3125 6.203125 -7.34375 C 6.453125 -7.382812 6.679688 -7.4375 6.890625 -7.5 Z M 6.890625 -7.5 "/></g></g></g><g fill="#000000" fill-opacity="1"><g transform="translate(215.66055, 89.760632)"><g><path d="M 3.984375 -7.546875 C 4.285156 -7.546875 4.578125 -7.503906 4.859375 -7.421875 C 5.148438 -7.347656 5.410156 -7.238281 5.640625 -7.09375 C 5.859375 -6.945312 6.023438 -6.78125 6.140625 -6.59375 C 6.253906 -6.40625 6.3125 -6.203125 6.3125 -5.984375 C 6.3125 -5.734375 6.238281 -5.535156 6.09375 -5.390625 C 5.945312 -5.253906 5.765625 -5.1875 5.546875 -5.1875 C 5.335938 -5.1875 5.15625 -5.25 5 -5.375 C 4.84375 -5.5 4.765625 -5.675781 4.765625 -5.90625 C 4.765625 -6.125 4.820312 -6.300781 4.9375 -6.4375 C 5.0625 -6.570312 5.203125 -6.65625 5.359375 -6.6875 C 5.265625 -6.863281 5.097656 -7.007812 4.859375 -7.125 C 4.617188 -7.238281 4.359375 -7.296875 4.078125 -7.296875 C 3.835938 -7.296875 3.597656 -7.238281 3.359375 -7.125 C 3.128906 -7.007812 2.910156 -6.816406 2.703125 -6.546875 C 2.503906 -6.285156 2.34375 -5.929688 2.21875 -5.484375 C 2.101562 -5.035156 2.046875 -4.472656 2.046875 -3.796875 C 2.046875 -2.960938 2.140625 -2.296875 2.328125 -1.796875 C 2.515625 -1.304688 2.757812 -0.953125 3.0625 -0.734375 C 3.375 -0.515625 3.71875 -0.40625 4.09375 -0.40625 C 4.34375 -0.40625 4.59375 -0.453125 4.84375 -0.546875 C 5.101562 -0.648438 5.347656 -0.804688 5.578125 -1.015625 C 5.804688 -1.234375 6 -1.523438 6.15625 -1.890625 L 6.4375 -1.78125 C 6.34375 -1.476562 6.1875 -1.171875 5.96875 -0.859375 C 5.75 -0.554688 5.460938 -0.300781 5.109375 -0.09375 C 4.753906 0.101562 4.320312 0.203125 3.8125 0.203125 C 3.21875 0.203125 2.679688 0.0507812 2.203125 -0.25 C 1.734375 -0.5625 1.359375 -1 1.078125 -1.5625 C 0.796875 -2.125 0.65625 -2.796875 0.65625 -3.578125 C 0.65625 -4.359375 0.796875 -5.046875 1.078125 -5.640625 C 1.359375 -6.234375 1.75 -6.695312 2.25 -7.03125 C 2.757812 -7.375 3.335938 -7.546875 3.984375 -7.546875 Z M 3.984375 -7.546875 "/></g></g></g><g fill="#000000" fill-opacity="1"><g transform="translate(222.59035, 89.760632)"><g><path d="M 2.703125 -9.71875 L 2.703125 -7.328125 L 4.828125 -7.328125 L 4.828125 -7.046875 L 2.703125 -7.046875 L 2.703125 -1.53125 C 2.703125 -1.082031 2.785156 -0.765625 2.953125 -0.578125 C 3.117188 -0.398438 3.34375 -0.3125 3.625 -0.3125 C 3.90625 -0.3125 4.148438 -0.425781 4.359375 -0.65625 C 4.566406 -0.894531 4.75 -1.289062 4.90625 -1.84375 L 5.1875 -1.765625 C 5.09375 -1.210938 4.90625 -0.742188 4.625 -0.359375 C 4.34375 0.015625 3.914062 0.203125 3.34375 0.203125 C 3.019531 0.203125 2.75 0.160156 2.53125 0.078125 C 2.320312 -0.00390625 2.140625 -0.117188 1.984375 -0.265625 C 1.773438 -0.484375 1.628906 -0.742188 1.546875 -1.046875 C 1.460938 -1.359375 1.421875 -1.765625 1.421875 -2.265625 L 1.421875 -7.046875 L 0.0625 -7.046875 L 0.0625 -7.328125 L 1.421875 -7.328125 L 1.421875 -9.515625 C 1.660156 -9.523438 1.890625 -9.539062 2.109375 -9.5625 C 2.328125 -9.59375 2.523438 -9.644531 2.703125 -9.71875 Z M 2.703125 -9.71875 "/></g></g></g><g fill="#000000" fill-opacity="1"><g transform="translate(227.637993, 89.760632)"><g/></g></g><g fill="#000000" fill-opacity="1"><g transform="translate(237.599078, 89.760632)"><g><path d="M 2.703125 -9.71875 L 2.703125 -7.328125 L 4.828125 -7.328125 L 4.828125 -7.046875 L 2.703125 -7.046875 L 2.703125 -1.53125 C 2.703125 -1.082031 2.785156 -0.765625 2.953125 -0.578125 C 3.117188 -0.398438 3.34375 -0.3125 3.625 -0.3125 C 3.90625 -0.3125 4.148438 -0.425781 4.359375 -0.65625 C 4.566406 -0.894531 4.75 -1.289062 4.90625 -1.84375 L 5.1875 -1.765625 C 5.09375 -1.210938 4.90625 -0.742188 4.625 -0.359375 C 4.34375 0.015625 3.914062 0.203125 3.34375 0.203125 C 3.019531 0.203125 2.75 0.160156 2.53125 0.078125 C 2.320312 -0.00390625 2.140625 -0.117188 1.984375 -0.265625 C 1.773438 -0.484375 1.628906 -0.742188 1.546875 -1.046875 C 1.460938 -1.359375 1.421875 -1.765625 1.421875 -2.265625 L 1.421875 -7.046875 L 0.0625 -7.046875 L 0.0625 -7.328125 L 1.421875 -7.328125 L 1.421875 -9.515625 C 1.660156 -9.523438 1.890625 -9.539062 2.109375 -9.5625 C 2.328125 -9.59375 2.523438 -9.644531 2.703125 -9.71875 Z M 2.703125 -9.71875 "/></g></g></g><g fill="#000000" fill-opacity="1"><g transform="translate(242.646721, 89.760632)"><g><path d="M 2.65625 -11.171875 L 2.65625 -5.828125 C 2.90625 -6.472656 3.25 -6.921875 3.6875 -7.171875 C 4.125 -7.421875 4.585938 -7.546875 5.078125 -7.546875 C 5.441406 -7.546875 5.742188 -7.5 5.984375 -7.40625 C 6.222656 -7.3125 6.425781 -7.175781 6.59375 -7 C 6.769531 -6.8125 6.894531 -6.570312 6.96875 -6.28125 C 7.050781 -6 7.09375 -5.617188 7.09375 -5.140625 L 7.09375 -1.328125 C 7.09375 -0.929688 7.175781 -0.660156 7.34375 -0.515625 C 7.507812 -0.367188 7.785156 -0.296875 8.171875 -0.296875 L 8.171875 0 C 8.015625 -0.0078125 7.769531 -0.0195312 7.4375 -0.03125 C 7.101562 -0.0507812 6.78125 -0.0625 6.46875 -0.0625 C 6.144531 -0.0625 5.832031 -0.0507812 5.53125 -0.03125 C 5.238281 -0.0195312 5.015625 -0.0078125 4.859375 0 L 4.859375 -0.296875 C 5.203125 -0.296875 5.445312 -0.367188 5.59375 -0.515625 C 5.738281 -0.660156 5.8125 -0.929688 5.8125 -1.328125 L 5.8125 -5.453125 C 5.8125 -5.742188 5.785156 -6.015625 5.734375 -6.265625 C 5.679688 -6.515625 5.570312 -6.710938 5.40625 -6.859375 C 5.25 -7.015625 5 -7.09375 4.65625 -7.09375 C 4.257812 -7.09375 3.910156 -6.984375 3.609375 -6.765625 C 3.316406 -6.546875 3.082031 -6.238281 2.90625 -5.84375 C 2.738281 -5.457031 2.65625 -5.015625 2.65625 -4.515625 L 2.65625 -1.328125 C 2.65625 -0.929688 2.722656 -0.660156 2.859375 -0.515625 C 3.003906 -0.367188 3.25 -0.296875 3.59375 -0.296875 L 3.59375 0 C 3.4375 -0.0078125 3.207031 -0.0195312 2.90625 -0.03125 C 2.613281 -0.0507812 2.3125 -0.0625 2 -0.0625 C 1.6875 -0.0625 1.363281 -0.0507812 1.03125 -0.03125 C 0.695312 -0.0195312 0.445312 -0.0078125 0.28125 0 L 0.28125 -0.296875 C 0.675781 -0.296875 0.957031 -0.367188 1.125 -0.515625 C 1.289062 -0.660156 1.375 -0.929688 1.375 -1.328125 L 1.375 -9.453125 C 1.375 -9.878906 1.296875 -10.195312 1.140625 -10.40625 C 0.984375 -10.613281 0.695312 -10.71875 0.28125 -10.71875 L 0.28125 -11.015625 C 0.582031 -10.984375 0.878906 -10.96875 1.171875 -10.96875 C 1.441406 -10.96875 1.703125 -10.984375 1.953125 -11.015625 C 2.210938 -11.046875 2.445312 -11.097656 2.65625 -11.171875 Z M 2.65625 -11.171875 "/></g></g></g><g fill="#000000" fill-opacity="1"><g transform="translate(251.03094, 89.760632)"><g><path d="M 2.4375 0.09375 C 2.050781 0.09375 1.710938 0.0195312 1.421875 -0.125 C 1.140625 -0.269531 0.925781 -0.472656 0.78125 -0.734375 C 0.632812 -1.003906 0.5625 -1.316406 0.5625 -1.671875 C 0.5625 -2.085938 0.65625 -2.425781 0.84375 -2.6875 C 1.039062 -2.957031 1.289062 -3.171875 1.59375 -3.328125 C 1.894531 -3.492188 2.210938 -3.628906 2.546875 -3.734375 C 2.890625 -3.847656 3.210938 -3.953125 3.515625 -4.046875 C 3.828125 -4.148438 4.078125 -4.269531 4.265625 -4.40625 C 4.460938 -4.539062 4.5625 -4.71875 4.5625 -4.9375 L 4.5625 -5.828125 C 4.5625 -6.222656 4.5 -6.523438 4.375 -6.734375 C 4.257812 -6.941406 4.101562 -7.082031 3.90625 -7.15625 C 3.707031 -7.226562 3.484375 -7.265625 3.234375 -7.265625 C 2.992188 -7.265625 2.738281 -7.226562 2.46875 -7.15625 C 2.195312 -7.09375 1.984375 -6.957031 1.828125 -6.75 C 2.003906 -6.707031 2.160156 -6.609375 2.296875 -6.453125 C 2.429688 -6.304688 2.5 -6.113281 2.5 -5.875 C 2.5 -5.632812 2.421875 -5.445312 2.265625 -5.3125 C 2.117188 -5.175781 1.925781 -5.109375 1.6875 -5.109375 C 1.40625 -5.109375 1.203125 -5.195312 1.078125 -5.375 C 0.953125 -5.550781 0.890625 -5.75 0.890625 -5.96875 C 0.890625 -6.207031 0.945312 -6.40625 1.0625 -6.5625 C 1.1875 -6.71875 1.347656 -6.859375 1.546875 -6.984375 C 1.765625 -7.140625 2.046875 -7.269531 2.390625 -7.375 C 2.734375 -7.488281 3.125 -7.546875 3.5625 -7.546875 C 3.957031 -7.546875 4.289062 -7.5 4.5625 -7.40625 C 4.84375 -7.320312 5.070312 -7.191406 5.25 -7.015625 C 5.5 -6.785156 5.660156 -6.503906 5.734375 -6.171875 C 5.804688 -5.847656 5.84375 -5.457031 5.84375 -5 L 5.84375 -1.046875 C 5.84375 -0.804688 5.878906 -0.632812 5.953125 -0.53125 C 6.023438 -0.425781 6.140625 -0.375 6.296875 -0.375 C 6.398438 -0.375 6.5 -0.394531 6.59375 -0.4375 C 6.6875 -0.488281 6.800781 -0.566406 6.9375 -0.671875 L 7.09375 -0.421875 C 6.894531 -0.273438 6.703125 -0.148438 6.515625 -0.046875 C 6.335938 0.046875 6.097656 0.09375 5.796875 0.09375 C 5.515625 0.09375 5.285156 0.046875 5.109375 -0.046875 C 4.929688 -0.140625 4.796875 -0.273438 4.703125 -0.453125 C 4.609375 -0.640625 4.5625 -0.878906 4.5625 -1.171875 C 4.3125 -0.742188 4.003906 -0.425781 3.640625 -0.21875 C 3.285156 -0.0078125 2.882812 0.09375 2.4375 0.09375 Z M 2.953125 -0.46875 C 3.265625 -0.46875 3.554688 -0.554688 3.828125 -0.734375 C 4.097656 -0.921875 4.34375 -1.195312 4.5625 -1.5625 L 4.5625 -4.34375 C 4.445312 -4.1875 4.28125 -4.050781 4.0625 -3.9375 C 3.84375 -3.832031 3.601562 -3.722656 3.34375 -3.609375 C 3.09375 -3.503906 2.847656 -3.378906 2.609375 -3.234375 C 2.378906 -3.085938 2.1875 -2.894531 2.03125 -2.65625 C 1.882812 -2.414062 1.8125 -2.101562 1.8125 -1.71875 C 1.8125 -1.34375 1.910156 -1.039062 2.109375 -0.8125 C 2.316406 -0.582031 2.597656 -0.46875 2.953125 -0.46875 Z M 2.953125 -0.46875 "/></g></g></g><g fill="#000000" fill-opacity="1"><g transform="translate(258.131854, 89.760632)"><g><path d="M 2.703125 -9.71875 L 2.703125 -7.328125 L 4.828125 -7.328125 L 4.828125 -7.046875 L 2.703125 -7.046875 L 2.703125 -1.53125 C 2.703125 -1.082031 2.785156 -0.765625 2.953125 -0.578125 C 3.117188 -0.398438 3.34375 -0.3125 3.625 -0.3125 C 3.90625 -0.3125 4.148438 -0.425781 4.359375 -0.65625 C 4.566406 -0.894531 4.75 -1.289062 4.90625 -1.84375 L 5.1875 -1.765625 C 5.09375 -1.210938 4.90625 -0.742188 4.625 -0.359375 C 4.34375 0.015625 3.914062 0.203125 3.34375 0.203125 C 3.019531 0.203125 2.75 0.160156 2.53125 0.078125 C 2.320312 -0.00390625 2.140625 -0.117188 1.984375 -0.265625 C 1.773438 -0.484375 1.628906 -0.742188 1.546875 -1.046875 C 1.460938 -1.359375 1.421875 -1.765625 1.421875 -2.265625 L 1.421875 -7.046875 L 0.0625 -7.046875 L 0.0625 -7.328125 L 1.421875 -7.328125 L 1.421875 -9.515625 C 1.660156 -9.523438 1.890625 -9.539062 2.109375 -9.5625 C 2.328125 -9.59375 2.523438 -9.644531 2.703125 -9.71875 Z M 2.703125 -9.71875 "/></g></g></g><g fill="#000000" fill-opacity="1"><g transform="translate(26.819466, 109.208769)"><g><path d="M 7.046875 -7.34375 L 7.046875 -7.0625 C 6.867188 -7.039062 6.703125 -6.957031 6.546875 -6.8125 C 6.390625 -6.675781 6.25 -6.425781 6.125 -6.0625 L 3.78125 0.078125 L 3.53125 0.078125 L 0.90625 -6.25 C 0.726562 -6.613281 0.550781 -6.835938 0.375 -6.921875 C 0.195312 -7.003906 0.0507812 -7.046875 -0.0625 -7.046875 L -0.0625 -7.34375 C 0.144531 -7.3125 0.363281 -7.289062 0.59375 -7.28125 C 0.820312 -7.269531 1.070312 -7.265625 1.34375 -7.265625 C 1.632812 -7.265625 1.941406 -7.269531 2.265625 -7.28125 C 2.597656 -7.300781 2.910156 -7.320312 3.203125 -7.34375 L 3.203125 -7.046875 C 2.960938 -7.046875 2.75 -7.03125 2.5625 -7 C 2.375 -6.96875 2.253906 -6.867188 2.203125 -6.703125 C 2.160156 -6.535156 2.21875 -6.25 2.375 -5.84375 L 4.140625 -1.5 L 4.046875 -1.46875 L 5.671875 -5.71875 C 5.796875 -6.03125 5.847656 -6.28125 5.828125 -6.46875 C 5.804688 -6.65625 5.707031 -6.796875 5.53125 -6.890625 C 5.363281 -6.984375 5.109375 -7.039062 4.765625 -7.0625 L 4.765625 -7.34375 C 4.929688 -7.332031 5.078125 -7.320312 5.203125 -7.3125 C 5.328125 -7.3125 5.445312 -7.304688 5.5625 -7.296875 C 5.6875 -7.296875 5.820312 -7.296875 5.96875 -7.296875 C 6.1875 -7.296875 6.378906 -7.300781 6.546875 -7.3125 C 6.722656 -7.320312 6.890625 -7.332031 7.046875 -7.34375 Z M 3.78125 0.078125 L 3.296875 1.3125 C 3.203125 1.550781 3.101562 1.75 3 1.90625 C 2.90625 2.070312 2.800781 2.207031 2.6875 2.3125 C 2.53125 2.457031 2.347656 2.554688 2.140625 2.609375 C 1.929688 2.660156 1.738281 2.6875 1.5625 2.6875 C 1.382812 2.6875 1.222656 2.648438 1.078125 2.578125 C 0.929688 2.515625 0.8125 2.414062 0.71875 2.28125 C 0.632812 2.15625 0.59375 2.003906 0.59375 1.828125 C 0.59375 1.597656 0.660156 1.410156 0.796875 1.265625 C 0.929688 1.128906 1.117188 1.0625 1.359375 1.0625 C 1.554688 1.0625 1.722656 1.117188 1.859375 1.234375 C 2.003906 1.347656 2.078125 1.515625 2.078125 1.734375 C 2.078125 1.898438 2.039062 2.035156 1.96875 2.140625 C 1.894531 2.242188 1.804688 2.320312 1.703125 2.375 C 1.710938 2.382812 1.722656 2.390625 1.734375 2.390625 C 1.753906 2.390625 1.769531 2.390625 1.78125 2.390625 C 2.039062 2.390625 2.269531 2.300781 2.46875 2.125 C 2.664062 1.957031 2.84375 1.675781 3 1.28125 L 3.515625 -0.046875 Z M 3.78125 0.078125 "/></g></g></g><g fill="#000000" fill-opacity="1"><g transform="translate(34.005937, 109.208769)"><g><path d="M 3.90625 -7.546875 C 4.519531 -7.546875 5.066406 -7.410156 5.546875 -7.140625 C 6.035156 -6.878906 6.421875 -6.460938 6.703125 -5.890625 C 6.992188 -5.316406 7.140625 -4.578125 7.140625 -3.671875 C 7.140625 -2.753906 6.992188 -2.007812 6.703125 -1.4375 C 6.421875 -0.875 6.035156 -0.457031 5.546875 -0.1875 C 5.066406 0.0703125 4.519531 0.203125 3.90625 0.203125 C 3.3125 0.203125 2.769531 0.0703125 2.28125 -0.1875 C 1.789062 -0.457031 1.398438 -0.875 1.109375 -1.4375 C 0.816406 -2.007812 0.671875 -2.753906 0.671875 -3.671875 C 0.671875 -4.578125 0.816406 -5.316406 1.109375 -5.890625 C 1.398438 -6.460938 1.789062 -6.878906 2.28125 -7.140625 C 2.769531 -7.410156 3.3125 -7.546875 3.90625 -7.546875 Z M 3.90625 -7.265625 C 3.363281 -7.265625 2.914062 -6.984375 2.5625 -6.421875 C 2.21875 -5.859375 2.046875 -4.941406 2.046875 -3.671875 C 2.046875 -2.390625 2.21875 -1.46875 2.5625 -0.90625 C 2.914062 -0.351562 3.363281 -0.078125 3.90625 -0.078125 C 4.445312 -0.078125 4.890625 -0.351562 5.234375 -0.90625 C 5.585938 -1.46875 5.765625 -2.390625 5.765625 -3.671875 C 5.765625 -4.941406 5.585938 -5.859375 5.234375 -6.421875 C 4.890625 -6.984375 4.445312 -7.265625 3.90625 -7.265625 Z M 3.90625 -7.265625 "/></g></g></g><g fill="#000000" fill-opacity="1"><g transform="translate(41.819793, 109.208769)"><g><path d="M 6.890625 -7.5 L 6.890625 -1.546875 C 6.890625 -1.117188 6.96875 -0.800781 7.125 -0.59375 C 7.28125 -0.382812 7.5625 -0.28125 7.96875 -0.28125 L 7.96875 0.015625 C 7.675781 -0.015625 7.382812 -0.03125 7.09375 -0.03125 C 6.8125 -0.03125 6.546875 -0.015625 6.296875 0.015625 C 6.046875 0.046875 5.816406 0.0976562 5.609375 0.171875 L 5.609375 -1.515625 C 5.367188 -0.890625 5.03125 -0.445312 4.59375 -0.1875 C 4.164062 0.0703125 3.722656 0.203125 3.265625 0.203125 C 2.929688 0.203125 2.640625 0.15625 2.390625 0.0625 C 2.148438 -0.03125 1.945312 -0.164062 1.78125 -0.34375 C 1.601562 -0.53125 1.476562 -0.773438 1.40625 -1.078125 C 1.34375 -1.390625 1.3125 -1.769531 1.3125 -2.21875 L 1.3125 -5.796875 C 1.3125 -6.222656 1.234375 -6.535156 1.078125 -6.734375 C 0.929688 -6.941406 0.648438 -7.046875 0.234375 -7.046875 L 0.234375 -7.34375 C 0.535156 -7.3125 0.828125 -7.296875 1.109375 -7.296875 C 1.390625 -7.296875 1.65625 -7.3125 1.90625 -7.34375 C 2.15625 -7.382812 2.382812 -7.4375 2.59375 -7.5 L 2.59375 -1.890625 C 2.59375 -1.597656 2.609375 -1.328125 2.640625 -1.078125 C 2.679688 -0.835938 2.78125 -0.640625 2.9375 -0.484375 C 3.09375 -0.328125 3.34375 -0.25 3.6875 -0.25 C 4.050781 -0.25 4.378906 -0.363281 4.671875 -0.59375 C 4.960938 -0.820312 5.191406 -1.128906 5.359375 -1.515625 C 5.523438 -1.910156 5.609375 -2.351562 5.609375 -2.84375 L 5.609375 -5.796875 C 5.609375 -6.222656 5.53125 -6.535156 5.375 -6.734375 C 5.226562 -6.941406 4.941406 -7.046875 4.515625 -7.046875 L 4.515625 -7.34375 C 4.828125 -7.3125 5.125 -7.296875 5.40625 -7.296875 C 5.6875 -7.296875 5.953125 -7.3125 6.203125 -7.34375 C 6.453125 -7.382812 6.679688 -7.4375 6.890625 -7.5 Z M 6.890625 -7.5 "/></g></g></g><g fill="#000000" fill-opacity="1"><g transform="translate(50.104189, 109.208769)"><g/></g></g><g fill="#000000" fill-opacity="1"><g transform="translate(53.654646, 109.208769)"><g><path d="M 4.65625 -7.546875 C 5.4375 -7.546875 6.082031 -7.222656 6.59375 -6.578125 C 7.101562 -5.941406 7.359375 -4.972656 7.359375 -3.671875 C 7.359375 -2.804688 7.210938 -2.085938 6.921875 -1.515625 C 6.628906 -0.941406 6.238281 -0.507812 5.75 -0.21875 C 5.269531 0.0625 4.75 0.203125 4.1875 0.203125 C 3.707031 0.203125 3.242188 0.0664062 2.796875 -0.203125 C 2.359375 -0.472656 2.03125 -0.875 1.8125 -1.40625 L 2.09375 -1.25 C 2.332031 -0.875 2.628906 -0.59375 2.984375 -0.40625 C 3.335938 -0.21875 3.695312 -0.125 4.0625 -0.125 C 4.695312 -0.125 5.175781 -0.410156 5.5 -0.984375 C 5.820312 -1.566406 5.984375 -2.460938 5.984375 -3.671875 C 5.984375 -4.441406 5.921875 -5.082031 5.796875 -5.59375 C 5.671875 -6.101562 5.476562 -6.484375 5.21875 -6.734375 C 4.96875 -6.992188 4.640625 -7.125 4.234375 -7.125 C 3.796875 -7.125 3.390625 -6.925781 3.015625 -6.53125 C 2.640625 -6.132812 2.410156 -5.554688 2.328125 -4.796875 L 2.15625 -5 C 2.257812 -5.800781 2.539062 -6.425781 3 -6.875 C 3.457031 -7.320312 4.007812 -7.546875 4.65625 -7.546875 Z M 2.421875 -11.171875 L 2.421875 -0.734375 C 2.296875 -0.628906 2.171875 -0.519531 2.046875 -0.40625 C 1.921875 -0.300781 1.796875 -0.195312 1.671875 -0.09375 C 1.546875 0.0078125 1.414062 0.117188 1.28125 0.234375 L 1.046875 0.125 C 1.078125 -0.0078125 1.097656 -0.144531 1.109375 -0.28125 C 1.128906 -0.414062 1.140625 -0.554688 1.140625 -0.703125 L 1.140625 -9.453125 C 1.140625 -9.878906 1.0625 -10.195312 0.90625 -10.40625 C 0.757812 -10.613281 0.476562 -10.71875 0.0625 -10.71875 L 0.0625 -11.015625 C 0.363281 -10.984375 0.65625 -10.96875 0.9375 -10.96875 C 1.21875 -10.96875 1.484375 -10.984375 1.734375 -11.015625 C 1.984375 -11.046875 2.210938 -11.097656 2.421875 -11.171875 Z M 2.421875 -11.171875 "/></g></g></g><g fill="#000000" fill-opacity="1"><g transform="translate(61.682383, 109.208769)"><g><path d="M 6.890625 -7.5 L 6.890625 -1.546875 C 6.890625 -1.117188 6.96875 -0.800781 7.125 -0.59375 C 7.28125 -0.382812 7.5625 -0.28125 7.96875 -0.28125 L 7.96875 0.015625 C 7.675781 -0.015625 7.382812 -0.03125 7.09375 -0.03125 C 6.8125 -0.03125 6.546875 -0.015625 6.296875 0.015625 C 6.046875 0.046875 5.816406 0.0976562 5.609375 0.171875 L 5.609375 -1.515625 C 5.367188 -0.890625 5.03125 -0.445312 4.59375 -0.1875 C 4.164062 0.0703125 3.722656 0.203125 3.265625 0.203125 C 2.929688 0.203125 2.640625 0.15625 2.390625 0.0625 C 2.148438 -0.03125 1.945312 -0.164062 1.78125 -0.34375 C 1.601562 -0.53125 1.476562 -0.773438 1.40625 -1.078125 C 1.34375 -1.390625 1.3125 -1.769531 1.3125 -2.21875 L 1.3125 -5.796875 C 1.3125 -6.222656 1.234375 -6.535156 1.078125 -6.734375 C 0.929688 -6.941406 0.648438 -7.046875 0.234375 -7.046875 L 0.234375 -7.34375 C 0.535156 -7.3125 0.828125 -7.296875 1.109375 -7.296875 C 1.390625 -7.296875 1.65625 -7.3125 1.90625 -7.34375 C 2.15625 -7.382812 2.382812 -7.4375 2.59375 -7.5 L 2.59375 -1.890625 C 2.59375 -1.597656 2.609375 -1.328125 2.640625 -1.078125 C 2.679688 -0.835938 2.78125 -0.640625 2.9375 -0.484375 C 3.09375 -0.328125 3.34375 -0.25 3.6875 -0.25 C 4.050781 -0.25 4.378906 -0.363281 4.671875 -0.59375 C 4.960938 -0.820312 5.191406 -1.128906 5.359375 -1.515625 C 5.523438 -1.910156 5.609375 -2.351562 5.609375 -2.84375 L 5.609375 -5.796875 C 5.609375 -6.222656 5.53125 -6.535156 5.375 -6.734375 C 5.226562 -6.941406 4.941406 -7.046875 4.515625 -7.046875 L 4.515625 -7.34375 C 4.828125 -7.3125 5.125 -7.296875 5.40625 -7.296875 C 5.6875 -7.296875 5.953125 -7.3125 6.203125 -7.34375 C 6.453125 -7.382812 6.679688 -7.4375 6.890625 -7.5 Z M 6.890625 -7.5 "/></g></g></g><g fill="#000000" fill-opacity="1"><g transform="translate(69.966778, 109.208769)"><g><path d="M 7.046875 -7.34375 L 7.046875 -7.0625 C 6.867188 -7.039062 6.703125 -6.957031 6.546875 -6.8125 C 6.390625 -6.675781 6.25 -6.425781 6.125 -6.0625 L 3.78125 0.078125 L 3.53125 0.078125 L 0.90625 -6.25 C 0.726562 -6.613281 0.550781 -6.835938 0.375 -6.921875 C 0.195312 -7.003906 0.0507812 -7.046875 -0.0625 -7.046875 L -0.0625 -7.34375 C 0.144531 -7.3125 0.363281 -7.289062 0.59375 -7.28125 C 0.820312 -7.269531 1.070312 -7.265625 1.34375 -7.265625 C 1.632812 -7.265625 1.941406 -7.269531 2.265625 -7.28125 C 2.597656 -7.300781 2.910156 -7.320312 3.203125 -7.34375 L 3.203125 -7.046875 C 2.960938 -7.046875 2.75 -7.03125 2.5625 -7 C 2.375 -6.96875 2.253906 -6.867188 2.203125 -6.703125 C 2.160156 -6.535156 2.21875 -6.25 2.375 -5.84375 L 4.140625 -1.5 L 4.046875 -1.46875 L 5.671875 -5.71875 C 5.796875 -6.03125 5.847656 -6.28125 5.828125 -6.46875 C 5.804688 -6.65625 5.707031 -6.796875 5.53125 -6.890625 C 5.363281 -6.984375 5.109375 -7.039062 4.765625 -7.0625 L 4.765625 -7.34375 C 4.929688 -7.332031 5.078125 -7.320312 5.203125 -7.3125 C 5.328125 -7.3125 5.445312 -7.304688 5.5625 -7.296875 C 5.6875 -7.296875 5.820312 -7.296875 5.96875 -7.296875 C 6.1875 -7.296875 6.378906 -7.300781 6.546875 -7.3125 C 6.722656 -7.320312 6.890625 -7.332031 7.046875 -7.34375 Z M 3.78125 0.078125 L 3.296875 1.3125 C 3.203125 1.550781 3.101562 1.75 3 1.90625 C 2.90625 2.070312 2.800781 2.207031 2.6875 2.3125 C 2.53125 2.457031 2.347656 2.554688 2.140625 2.609375 C 1.929688 2.660156 1.738281 2.6875 1.5625 2.6875 C 1.382812 2.6875 1.222656 2.648438 1.078125 2.578125 C 0.929688 2.515625 0.8125 2.414062 0.71875 2.28125 C 0.632812 2.15625 0.59375 2.003906 0.59375 1.828125 C 0.59375 1.597656 0.660156 1.410156 0.796875 1.265625 C 0.929688 1.128906 1.117188 1.0625 1.359375 1.0625 C 1.554688 1.0625 1.722656 1.117188 1.859375 1.234375 C 2.003906 1.347656 2.078125 1.515625 2.078125 1.734375 C 2.078125 1.898438 2.039062 2.035156 1.96875 2.140625 C 1.894531 2.242188 1.804688 2.320312 1.703125 2.375 C 1.710938 2.382812 1.722656 2.390625 1.734375 2.390625 C 1.753906 2.390625 1.769531 2.390625 1.78125 2.390625 C 2.039062 2.390625 2.269531 2.300781 2.46875 2.125 C 2.664062 1.957031 2.84375 1.675781 3 1.28125 L 3.515625 -0.046875 Z M 3.78125 0.078125 "/></g></g></g><g fill="#000000" fill-opacity="1"><g transform="translate(77.153249, 109.208769)"><g><path d="M 1.796875 -1.625 C 2.046875 -1.625 2.257812 -1.53125 2.4375 -1.34375 C 2.613281 -1.164062 2.703125 -0.957031 2.703125 -0.71875 C 2.703125 -0.46875 2.613281 -0.25 2.4375 -0.0625 C 2.257812 0.113281 2.046875 0.203125 1.796875 0.203125 C 1.546875 0.203125 1.332031 0.113281 1.15625 -0.0625 C 0.976562 -0.25 0.890625 -0.46875 0.890625 -0.71875 C 0.890625 -0.957031 0.976562 -1.164062 1.15625 -1.34375 C 1.332031 -1.53125 1.546875 -1.625 1.796875 -1.625 Z M 1.796875 -1.625 "/></g></g></g><g fill="#000000" fill-opacity="1"><g transform="translate(80.757658, 109.208769)"><g/></g></g></svg>